<svg width="59" height="58" viewBox="0 0 59 58" fill="none" xmlns="http://www.w3.org/2000/svg">
<g filter="url(#filter0_dd)">
<path d="M5.5 25C5.5 11.7452 16.2452 1 29.5 1H53.5V25C53.5 38.2548 42.7548 49 29.5 49C16.2452 49 5.5 38.2548 5.5 25Z" fill="#2FA83E"/>
<path d="M36.5 17.5C35.6716 17.5 35 18.1716 35 19C35 19.8284 35.6716 20.5 36.5 20.5C37.3284 20.5 38 19.8284 38 19C38 18.1716 37.3284 17.5 36.5 17.5ZM33.5 19C33.5 17.3431 34.8431 16 36.5 16C38.1569 16 39.5 17.3431 39.5 19C39.5 20.6569 38.1569 22 36.5 22C36.3382 22 36.1794 21.9872 36.0246 21.9625L33.9865 25.3209C34.3107 25.8001 34.5 26.3779 34.5 27C34.5 28.6569 33.1569 30 31.5 30C30.5971 30 29.7874 29.6012 29.2374 28.9701L25.4958 30.8406C25.4986 30.8934 25.5 30.9465 25.5 31C25.5 32.6569 24.1569 34 22.5 34C20.8431 34 19.5 32.6569 19.5 31C19.5 29.3431 20.8431 28 22.5 28C23.5662 28 24.5024 28.5562 25.0345 29.3942L28.566 27.6287C28.5228 27.426 28.5 27.2156 28.5 27C28.5 25.3431 29.8431 24 31.5 24C31.9823 24 32.438 24.1138 32.8417 24.316L34.6395 21.3536C33.9454 20.8041 33.5 19.9541 33.5 19ZM31.5 25.5C30.6716 25.5 30 26.1716 30 27C30 27.8284 30.6716 28.5 31.5 28.5C32.3284 28.5 33 27.8284 33 27C33 26.1716 32.3284 25.5 31.5 25.5ZM22.5 29.5C21.6716 29.5 21 30.1716 21 31C21 31.8284 21.6716 32.5 22.5 32.5C23.3284 32.5 24 31.8284 24 31C24 30.1716 23.3284 29.5 22.5 29.5Z" fill="white"/>
</g>
<defs>
<filter id="filter0_dd" x="0.5" y="0" width="58" height="58" filterUnits="userSpaceOnUse" color-interpolation-filters="sRGB">
<feFlood flood-opacity="0" result="BackgroundImageFix"/>
<feColorMatrix in="SourceAlpha" type="matrix" values="0 0 0 0 0 0 0 0 0 0 0 0 0 0 0 0 0 0 127 0"/>
<feMorphology radius="1" operator="erode" in="SourceAlpha" result="effect1_dropShadow"/>
<feOffset dy="2"/>
<feGaussianBlur stdDeviation="2"/>
<feColorMatrix type="matrix" values="0 0 0 0 0.223529 0 0 0 0 0.117647 0 0 0 0 0.686275 0 0 0 0.06 0"/>
<feBlend mode="normal" in2="BackgroundImageFix" result="effect1_dropShadow"/>
<feColorMatrix in="SourceAlpha" type="matrix" values="0 0 0 0 0 0 0 0 0 0 0 0 0 0 0 0 0 0 127 0"/>
<feMorphology radius="1" operator="erode" in="SourceAlpha" result="effect2_dropShadow"/>
<feOffset dy="4"/>
<feGaussianBlur stdDeviation="3"/>
<feColorMatrix type="matrix" values="0 0 0 0 0.223529 0 0 0 0 0.117647 0 0 0 0 0.686275 0 0 0 0.1 0"/>
<feBlend mode="normal" in2="effect1_dropShadow" result="effect2_dropShadow"/>
<feBlend mode="normal" in="SourceGraphic" in2="effect2_dropShadow" result="shape"/>
</filter>
</defs>
</svg>
