<svg width="59" height="58" viewBox="0 0 59 58" fill="none" xmlns="http://www.w3.org/2000/svg">
<g filter="url(#filter0_dd)">
<path d="M5.5 25C5.5 11.7452 16.2452 1 29.5 1H53.5V25C53.5 38.2548 42.7548 49 29.5 49C16.2452 49 5.5 38.2548 5.5 25Z" fill="#2FA83E"/>
<path d="M39.4068 18.6221C39.4686 18.8301 39.5 19.046 39.5 19.263V30.7384C39.5 31.9811 38.4926 32.9884 37.25 32.9884C37.0329 32.9884 36.817 32.957 36.6089 32.8952L31.095 31.2555C30.4378 32.6006 29.0584 33.4992 27.5 33.4992C25.3578 33.4992 23.6089 31.8152 23.5049 29.6988L23.5 29.4992L23.499 28.9985L21.1089 28.2878C20.1545 28.0041 19.5 27.1268 19.5 26.131V23.8691C19.5 22.8733 20.1545 21.996 21.1091 21.7123L36.6091 17.1063C37.8002 16.7523 39.0528 17.431 39.4068 18.6221ZM24.999 29.4445L25 29.4992C25 30.8799 26.1193 31.9992 27.5 31.9992C28.3852 31.9992 29.1783 31.535 29.6238 30.8197L24.999 29.4445ZM37.0364 18.5441L21.5364 23.1502C21.2182 23.2447 21 23.5372 21 23.8691V26.131C21 26.4629 21.2182 26.7554 21.5363 26.8499L37.0363 31.4574C37.1057 31.478 37.1776 31.4884 37.25 31.4884C37.6642 31.4884 38 31.1527 38 30.7384V19.263C38 19.1907 37.9895 19.1187 37.9689 19.0494C37.8509 18.6523 37.4334 18.4261 37.0364 18.5441Z" fill="white"/>
</g>
<defs>
<filter id="filter0_dd" x="0.5" y="0" width="58" height="58" filterUnits="userSpaceOnUse" color-interpolation-filters="sRGB">
<feFlood flood-opacity="0" result="BackgroundImageFix"/>
<feColorMatrix in="SourceAlpha" type="matrix" values="0 0 0 0 0 0 0 0 0 0 0 0 0 0 0 0 0 0 127 0"/>
<feMorphology radius="1" operator="erode" in="SourceAlpha" result="effect1_dropShadow"/>
<feOffset dy="2"/>
<feGaussianBlur stdDeviation="2"/>
<feColorMatrix type="matrix" values="0 0 0 0 0.223529 0 0 0 0 0.117647 0 0 0 0 0.686275 0 0 0 0.06 0"/>
<feBlend mode="normal" in2="BackgroundImageFix" result="effect1_dropShadow"/>
<feColorMatrix in="SourceAlpha" type="matrix" values="0 0 0 0 0 0 0 0 0 0 0 0 0 0 0 0 0 0 127 0"/>
<feMorphology radius="1" operator="erode" in="SourceAlpha" result="effect2_dropShadow"/>
<feOffset dy="4"/>
<feGaussianBlur stdDeviation="3"/>
<feColorMatrix type="matrix" values="0 0 0 0 0.223529 0 0 0 0 0.117647 0 0 0 0 0.686275 0 0 0 0.1 0"/>
<feBlend mode="normal" in2="effect1_dropShadow" result="effect2_dropShadow"/>
<feBlend mode="normal" in="SourceGraphic" in2="effect2_dropShadow" result="shape"/>
</filter>
</defs>
</svg>
