<svg  viewBox="0 0 840 553" fill="none" xmlns="http://www.w3.org/2000/svg">
<path d="M162.253 550.374C162.253 550.374 482.426 283.162 666.827 550.374H162.253Z" fill="#F5F5F5"/>
<path d="M199.47 398.713H164.517C158.214 398.713 153.105 403.822 153.105 410.124V539.444C153.105 545.747 158.214 550.856 164.517 550.856H199.47C205.772 550.856 210.881 545.747 210.881 539.444V410.124C210.881 403.822 205.772 398.713 199.47 398.713Z" fill="#2FA83E"/>
<path d="M309.243 307.235H274.29C267.988 307.235 262.879 312.344 262.879 318.646V539.444C262.879 545.747 267.988 550.856 274.29 550.856H309.243C315.546 550.856 320.655 545.747 320.655 539.444V318.646C320.655 312.344 315.546 307.235 309.243 307.235Z" fill="#2FA83E"/>
<path d="M419.017 243.682H384.064C377.762 243.682 372.653 248.791 372.653 255.093V539.444C372.653 545.747 377.762 550.855 384.064 550.855H419.017C425.319 550.855 430.428 545.747 430.428 539.444V255.093C430.428 248.791 425.319 243.682 419.017 243.682Z" fill="#2FA83E"/>
<path d="M528.791 183.018H493.837C487.535 183.018 482.426 188.127 482.426 194.429V539.444C482.426 545.747 487.535 550.856 493.837 550.856H528.791C535.093 550.856 540.202 545.747 540.202 539.444V194.429C540.202 188.127 535.093 183.018 528.791 183.018Z" fill="#2FA83E"/>
<path d="M638.564 77.0957H603.611C597.309 77.0957 592.2 82.2047 592.2 88.5069V539.444C592.2 545.747 597.309 550.856 603.611 550.856H638.564C644.867 550.856 649.976 545.747 649.976 539.444V88.5069C649.976 82.2047 644.867 77.0957 638.564 77.0957Z" fill="#2FA83E"/>
<path d="M207.173 391.01H172.22C165.918 391.01 160.809 396.119 160.809 402.421V531.741C160.809 538.043 165.918 543.152 172.22 543.152H207.173C213.475 543.152 218.584 538.043 218.584 531.741V402.421C218.584 396.119 213.475 391.01 207.173 391.01Z" stroke="#313335" stroke-miterlimit="10"/>
<path d="M316.947 299.532H281.994C275.691 299.532 270.583 304.641 270.583 310.943V531.741C270.583 538.043 275.691 543.152 281.994 543.152H316.947C323.249 543.152 328.358 538.043 328.358 531.741V310.943C328.358 304.641 323.249 299.532 316.947 299.532Z" stroke="#313335" stroke-miterlimit="10"/>
<path d="M426.72 235.979H391.767C385.465 235.979 380.356 241.087 380.356 247.39V531.741C380.356 538.043 385.465 543.152 391.767 543.152H426.72C433.023 543.152 438.132 538.043 438.132 531.741V247.39C438.132 241.087 433.023 235.979 426.72 235.979Z" stroke="#313335" stroke-miterlimit="10"/>
<path d="M536.494 175.314H501.541C495.239 175.314 490.13 180.423 490.13 186.725V531.741C490.13 538.043 495.239 543.152 501.541 543.152H536.494C542.796 543.152 547.905 538.043 547.905 531.741V186.725C547.905 180.423 542.796 175.314 536.494 175.314Z" stroke="#313335" stroke-miterlimit="10"/>
<path d="M646.268 69.3921H611.315C605.012 69.3921 599.903 74.501 599.903 80.8033V531.741C599.903 538.043 605.012 543.152 611.315 543.152H646.268C652.57 543.152 657.679 538.043 657.679 531.741V80.8033C657.679 74.501 652.57 69.3921 646.268 69.3921Z" stroke="#313335" stroke-miterlimit="10"/>
<path d="M829.08 551.337H0" stroke="#313335" stroke-miterlimit="10"/>
<path opacity="0.1" d="M671.671 386.751C671.671 386.751 667.708 445.57 668.318 459.743C665.056 458.806 663.026 457.713 663.22 456.553C663.824 452.928 670.469 384.057 670.469 377.412C670.469 370.766 672.886 338.747 672.886 338.747L655.523 304.584C655.801 302.892 655.97 301.895 655.97 301.895L664.73 320.321L677.115 323.644L671.671 386.751Z" fill="#313335"/>
<path d="M189.215 332.753L298.989 241.275L409.725 178.684L519.499 118.02L629.273 12.0981" stroke="#313335" stroke-miterlimit="10"/>
<path d="M186.326 348.16C192.176 348.16 196.919 343.417 196.919 337.567C196.919 331.717 192.176 326.975 186.326 326.975C180.476 326.975 175.734 331.717 175.734 337.567C175.734 343.417 180.476 348.16 186.326 348.16Z" fill="#F5F5F5"/>
<path d="M296.1 256.681C301.95 256.681 306.692 251.939 306.692 246.089C306.692 240.239 301.95 235.497 296.1 235.497C290.25 235.497 285.508 240.239 285.508 246.089C285.508 251.939 290.25 256.681 296.1 256.681Z" fill="#F5F5F5"/>
<path d="M406.837 194.091C412.686 194.091 417.429 189.349 417.429 183.499C417.429 177.649 412.686 172.907 406.837 172.907C400.987 172.907 396.244 177.649 396.244 183.499C396.244 189.349 400.987 194.091 406.837 194.091Z" fill="#F5F5F5"/>
<path d="M516.61 133.427C522.46 133.427 527.202 128.685 527.202 122.835C527.202 116.985 522.46 112.242 516.61 112.242C510.76 112.242 506.018 116.985 506.018 122.835C506.018 128.685 510.76 133.427 516.61 133.427Z" fill="#F5F5F5"/>
<path d="M626.384 27.5049C632.234 27.5049 636.976 22.7627 636.976 16.9128C636.976 11.0628 632.234 6.32056 626.384 6.32056C620.534 6.32056 615.792 11.0628 615.792 16.9128C615.792 22.7627 620.534 27.5049 626.384 27.5049Z" fill="#F5F5F5"/>
<path d="M189.215 343.345C195.065 343.345 199.807 338.603 199.807 332.753C199.807 326.903 195.065 322.16 189.215 322.16C183.365 322.16 178.623 326.903 178.623 332.753C178.623 338.603 183.365 343.345 189.215 343.345Z" stroke="#313335" stroke-miterlimit="10"/>
<path d="M298.989 251.867C304.839 251.867 309.581 247.124 309.581 241.275C309.581 235.425 304.839 230.682 298.989 230.682C293.139 230.682 288.396 235.425 288.396 241.275C288.396 247.124 293.139 251.867 298.989 251.867Z" stroke="#313335" stroke-miterlimit="10"/>
<path d="M409.725 189.277C415.575 189.277 420.317 184.534 420.317 178.684C420.317 172.835 415.575 168.092 409.725 168.092C403.875 168.092 399.133 172.835 399.133 178.684C399.133 184.534 403.875 189.277 409.725 189.277Z" stroke="#313335" stroke-miterlimit="10"/>
<path d="M519.499 128.612C525.349 128.612 530.091 123.87 530.091 118.02C530.091 112.17 525.349 107.428 519.499 107.428C513.649 107.428 508.907 112.17 508.907 118.02C508.907 123.87 513.649 128.612 519.499 128.612Z" stroke="#313335" stroke-miterlimit="10"/>
<path d="M629.273 22.6903C635.122 22.6903 639.865 17.948 639.865 12.0981C639.865 6.24815 635.122 1.50586 629.273 1.50586C623.423 1.50586 618.68 6.24815 618.68 12.0981C618.68 17.948 623.423 22.6903 629.273 22.6903Z" stroke="#313335" stroke-miterlimit="10"/>
<path d="M828.444 452.696H786.073C786.073 453.914 742.404 454.902 742.404 454.902C741.719 455.418 741.094 456.01 740.542 456.667C738.884 458.646 737.977 461.146 737.983 463.728V465.493C737.984 468.418 739.146 471.224 741.215 473.292C743.284 475.361 746.089 476.524 749.015 476.525H828.444C831.369 476.522 834.174 475.359 836.242 473.291C838.31 471.222 839.474 468.418 839.476 465.493V463.728C839.472 460.803 838.309 457.999 836.241 455.931C834.173 453.863 831.369 452.7 828.444 452.696Z" fill="#313335"/>
<path d="M794.903 476.086H783.429V550.221H794.903V476.086Z" fill="#313335"/>
<path d="M827.557 549.818C827.557 551.057 810.171 550.297 788.725 550.297C767.278 550.297 749.893 551.057 749.893 549.818C749.893 548.578 767.278 538.748 788.725 538.748C810.171 538.748 827.557 548.578 827.557 549.818Z" fill="#313335"/>
<path d="M792.848 353.349C806.495 353.349 817.559 342.285 817.559 328.637C817.559 314.989 806.495 303.926 792.848 303.926C779.2 303.926 768.136 314.989 768.136 328.637C768.136 342.285 779.2 353.349 792.848 353.349Z" fill="#313335"/>
<path d="M731.351 540.067L720.531 540.066L715.383 498.332L731.353 498.333L731.351 540.067Z" fill="#FFCAD0"/>
<path d="M712.803 536.975H733.669V550.113H699.664C699.664 546.629 701.048 543.287 703.512 540.823C705.976 538.359 709.318 536.975 712.803 536.975Z" fill="#313335"/>
<path d="M714.46 534.028L704.137 530.788L711.72 489.427L726.956 494.209L714.46 534.028Z" fill="#FFCAD0"/>
<path d="M697.689 525.525L717.599 531.773L713.665 544.308L681.22 534.126C682.263 530.802 684.584 528.028 687.673 526.415C690.762 524.801 694.365 524.481 697.689 525.525Z" fill="#313335"/>
<path d="M799.467 445.461C799.217 443.358 798.768 441.284 798.126 439.266L796.105 436.724L790.845 430.123L790.615 430.131C790.227 430.149 788.612 430.237 786.114 430.431H786.088C784.543 430.555 782.654 430.714 780.51 430.917C779.945 430.979 779.354 431.032 778.745 431.093V440.307H789.777C790.313 440.308 790.831 440.503 791.233 440.857C791.636 441.211 791.896 441.7 791.966 442.231C791.974 442.328 791.983 442.416 791.983 442.514C791.983 443.099 791.75 443.66 791.337 444.073C790.923 444.487 790.362 444.72 789.777 444.72H725.703C724.887 445.262 724.103 445.851 723.356 446.485C721.099 448.232 719.472 450.668 718.722 453.422C714.981 469.873 708.158 500.55 706.146 509.561C706 510.24 706.033 510.945 706.242 511.607C706.451 512.27 706.829 512.866 707.338 513.338C707.713 513.689 708.154 513.962 708.635 514.142L716.596 517.124C716.923 517.245 717.264 517.325 717.611 517.363C717.655 517.363 717.69 517.372 717.734 517.372C717.816 517.379 717.899 517.382 717.981 517.38C718.786 517.377 719.571 517.131 720.234 516.675C720.897 516.218 721.407 515.572 721.697 514.821L727.981 498.335L737.662 472.917L741.493 462.865C745.932 463.907 783.175 472.15 795.646 458.867C796.876 457.559 797.846 456.028 798.505 454.357C799.555 451.517 799.885 448.461 799.467 445.461Z" fill="#313335"/>
<path d="M810.269 447.862C810.075 447.076 809.854 446.264 809.598 445.444L802.317 436.3L802.088 436.309C801.628 436.336 799.449 436.45 796.104 436.724C792.309 437.042 787.005 437.554 781.047 438.357C780.871 438.374 780.686 438.401 780.509 438.427C779.927 438.507 779.335 438.586 778.744 438.674V440.307H789.776C790.312 440.308 790.83 440.503 791.232 440.857C791.635 441.211 791.895 441.699 791.965 442.231C791.973 442.328 791.982 442.416 791.982 442.513C791.982 443.099 791.75 443.66 791.336 444.073C790.922 444.487 790.361 444.72 789.776 444.72H750.785C749.082 445.276 747.44 445.858 745.869 446.485C737.626 449.75 731.457 454.031 730.195 459.6C729.771 461.471 729.304 463.527 728.809 465.716C726.974 473.853 724.741 483.817 722.72 492.872V492.881C722.305 494.752 721.89 496.57 721.493 498.335C719.807 505.925 718.378 512.359 717.618 515.739C717.601 515.836 717.583 515.924 717.565 516.021V516.039C717.477 516.723 717.562 517.417 717.813 518.06L717.821 518.069V518.077C718.064 518.693 718.459 519.236 718.969 519.657C719.31 519.938 719.694 520.162 720.107 520.319L728.068 523.302C728.511 523.468 728.98 523.555 729.454 523.558C730.117 523.56 730.77 523.393 731.351 523.073C732.185 522.621 732.83 521.885 733.169 520.999L750.308 476.024L752.965 469.043C757.404 470.084 794.648 478.318 807.118 465.045C809.582 462.378 810.988 458.904 811.072 455.275C811.159 452.778 810.888 450.282 810.269 447.862Z" fill="#313335"/>
<path d="M809.289 370.003C809.148 369.835 808.998 369.668 808.839 369.509C806.488 367.037 803.586 365.158 800.369 364.024C797.152 362.891 793.712 362.535 790.332 362.987C787.383 363.374 784.461 363.949 781.586 364.708C777.871 365.663 774.471 367.57 771.719 370.241C769.576 372.319 767.887 374.82 766.762 377.585C765.636 380.35 765.097 383.319 765.179 386.304C765.214 387.513 765.223 388.748 765.206 390.002C765.206 390.584 765.197 391.175 765.188 391.767H773.89C774.268 391.766 774.644 391.81 775.011 391.899C776.073 392.153 777.018 392.757 777.696 393.613C778.373 394.469 778.742 395.529 778.744 396.621V437.677C779.335 437.845 779.927 438.012 780.509 438.189C780.694 438.251 780.871 438.304 781.047 438.357C781.25 438.418 781.453 438.48 781.648 438.542C783.439 439.098 785.189 439.686 786.899 440.307H789.776C790.312 440.308 790.83 440.503 791.232 440.857C791.635 441.211 791.895 441.699 791.965 442.231C792.565 442.469 793.147 442.707 793.721 442.946C795.759 443.793 797.692 444.64 799.466 445.461C801.858 446.555 803.985 447.597 805.768 448.506C806.328 448.791 806.948 448.943 807.577 448.947C808.403 448.944 809.207 448.679 809.872 448.188C810.01 448.086 810.142 447.977 810.269 447.862C810.741 447.419 811.098 446.867 811.309 446.255C811.519 445.643 811.577 444.989 811.478 444.349C810.567 437.416 810.301 430.414 810.684 423.432C810.93 417.564 811.46 411.545 812.149 405.729C812.519 402.578 812.934 399.489 813.367 396.515C813.782 393.673 814.223 390.946 814.655 388.369C815.222 385.101 815.034 381.747 814.104 378.563C813.173 375.379 811.526 372.451 809.289 370.003Z" fill="#2FA83E"/>
<path d="M773.114 370.727C772.661 370.532 772.195 370.37 771.719 370.241C769.367 369.608 766.866 369.842 764.672 370.9C762.478 371.958 760.738 373.77 759.769 376.004L753.706 390.002L752.947 391.767H773.89C774.268 391.766 774.644 391.81 775.011 391.899L775.717 390.267L778.4 384.071C779.466 381.6 779.508 378.807 778.516 376.306C777.525 373.804 775.582 371.798 773.114 370.727Z" fill="#2FA83E"/>
<path d="M791.944 356.095C803.915 356.095 813.62 346.391 813.62 334.419C813.62 322.448 803.915 312.743 791.944 312.743C779.972 312.743 770.268 322.448 770.268 334.419C770.268 346.391 779.972 356.095 791.944 356.095Z" fill="#FFCAD0"/>
<path d="M769.877 323.769C780.144 330.037 791.719 333.851 803.702 334.914L800.136 330.642C802.732 331.602 805.464 332.144 808.23 332.249C810.992 332.206 813.887 331.143 815.455 328.868C816.154 327.737 816.569 326.453 816.666 325.127C816.762 323.801 816.536 322.471 816.007 321.251C814.92 318.818 813.229 316.704 811.094 315.109C807.31 312.115 802.844 310.105 798.094 309.256C793.345 308.407 788.459 308.746 783.872 310.244C780.726 311.184 777.908 312.991 775.742 315.459C773.687 317.994 769.731 320.253 770.783 323.342L769.877 323.769Z" fill="#313335"/>
<path d="M795.588 306.276C788.751 299.343 780.478 293.993 771.35 290.603C765.491 288.432 759.114 287.091 752.989 288.324C746.864 289.557 741.071 293.794 739.362 299.804C737.965 304.718 739.407 310.01 741.576 314.636C743.745 319.262 746.64 323.552 748.393 328.351C750.183 333.247 750.721 338.513 749.959 343.67C749.197 348.827 747.159 353.712 744.03 357.882C740.901 362.052 736.781 365.374 732.042 367.547C727.304 369.72 722.097 370.676 716.896 370.327C722.914 371.134 728.462 373.962 734.345 375.467C740.227 376.973 747.171 376.871 751.542 372.656C756.168 368.197 756.26 360.947 756.037 354.526C755.704 344.982 755.372 335.437 755.039 325.892C754.87 321.024 754.725 316.001 756.48 311.457C758.236 306.914 762.408 302.936 767.278 302.977C770.97 303.009 774.237 305.245 777.197 307.45C780.157 309.655 783.291 312.008 786.967 312.336C790.644 312.664 794.842 309.943 794.567 306.262L795.588 306.276Z" fill="#313335"/>
<path d="M813.367 396.515L800.993 396.85L800.093 405.543L799.89 407.556L780.509 416.258L778.744 417.052V432.523L780.509 432.02L786.087 430.431H786.114L810.684 423.433L810.966 423.353C812.951 422.78 814.699 421.582 815.948 419.936C817.198 418.29 817.884 416.285 817.903 414.219L817.965 403.955L818.018 396.391L813.367 396.515Z" fill="#FFCAD0"/>
<path d="M817.392 379.323C817.227 376.636 816.001 374.124 813.984 372.341C811.967 370.557 809.325 369.648 806.638 369.813C803.951 369.978 801.439 371.204 799.656 373.221C797.872 375.238 796.963 377.88 797.128 380.567L798.478 402.596C798.515 403.175 798.678 403.74 798.958 404.249C799.237 404.759 799.624 405.201 800.093 405.543C800.839 406.1 801.759 406.372 802.688 406.311L812.149 405.729L815.018 405.552C815.54 405.526 816.052 405.395 816.522 405.166C816.992 404.937 817.411 404.615 817.753 404.22C817.829 404.136 817.9 404.047 817.965 403.955C818.526 403.204 818.801 402.278 818.742 401.342L817.392 379.323Z" fill="#2FA83E"/>
<path d="M781.648 438.542H780.51V438.427C779.927 438.507 779.336 438.586 778.745 438.674V440.307H786.899C785.187 439.689 783.437 439.101 781.648 438.542ZM781.648 438.542H780.51V438.427C779.927 438.507 779.336 438.586 778.745 438.674V440.307H786.899C785.187 439.689 783.437 439.101 781.648 438.542ZM789.777 438.542H780.51V396.621C780.507 395.185 780.038 393.79 779.173 392.644C778.309 391.498 777.096 390.664 775.717 390.266C775.125 390.088 774.509 389.998 773.891 390.002H695.344C693.589 390.004 691.906 390.702 690.665 391.943C689.425 393.183 688.726 394.866 688.724 396.621V439.866C688.725 441.621 689.423 443.304 690.664 444.545C691.905 445.787 693.588 446.484 695.344 446.485H789.777C790.754 446.483 791.697 446.121 792.425 445.468C793.152 444.816 793.614 443.918 793.721 442.946C793.739 442.802 793.748 442.658 793.748 442.513C793.746 441.461 793.327 440.451 792.583 439.707C791.839 438.962 790.829 438.543 789.777 438.542ZM791.983 442.513C791.983 443.098 791.75 443.659 791.336 444.073C790.923 444.487 790.362 444.719 789.777 444.72H695.344C694.056 444.719 692.822 444.207 691.912 443.297C691.002 442.387 690.49 441.153 690.489 439.866V396.621C690.49 395.334 691.002 394.099 691.912 393.189C692.822 392.279 694.056 391.767 695.344 391.767H773.891C774.268 391.766 774.645 391.81 775.011 391.899C776.073 392.153 777.019 392.757 777.696 393.613C778.373 394.469 778.743 395.529 778.745 396.621V440.307H789.777C790.313 440.308 790.83 440.503 791.233 440.857C791.636 441.211 791.896 441.699 791.965 442.231C791.974 442.328 791.983 442.416 791.983 442.513ZM781.648 438.542H780.51V438.427C779.927 438.507 779.336 438.586 778.745 438.674V440.307H786.899C785.187 439.689 783.437 439.101 781.648 438.542Z" fill="#313335"/>
<path d="M734.614 423.54C737.539 423.54 739.909 421.169 739.909 418.245C739.909 415.32 737.539 412.949 734.614 412.949C731.69 412.949 729.319 415.32 729.319 418.245C729.319 421.169 731.69 423.54 734.614 423.54Z" fill="#2FA83E"/>
</svg>
