<svg width="126" height="26" viewBox="0 0 126 26" fill="none" xmlns="http://www.w3.org/2000/svg">
<path d="M4.09007 12.696C3.53949 12.8781 2.97042 13.0942 2.55749 13.5729C1.59192 14.6914 1.96376 16.8352 3.03616 17.7969C4.10856 18.7586 5.58773 18.7565 6.87584 18.3413C8.05001 17.9508 9.12273 17.2902 10.0129 16.4094C11.412 15.0452 12.4309 13.1662 13.869 11.8656C15.3071 10.5649 17.4889 9.99934 18.816 11.4631L13.6656 16.4242C12.8439 17.2228 11.9235 18.0617 10.8634 18.0934C9.77255 18.1273 8.76795 17.2631 8.15163 16.17C7.53531 15.077 7.23536 13.7678 6.94569 12.4884C6.54919 10.7429 5.96163 10.1582 5.7603 7.25188C5.55897 4.34555 7.73047 2.75045 9.79926 3.39866C11.868 4.04686 12.5152 5.63772 12.7288 7.15232C12.9425 8.66692 12.698 10.2196 12.7021 11.7554C12.7021 15.3566 14.1649 18.9069 16.5213 21.0866C16.8623 21.4023 17.2547 21.7009 17.6799 21.6649C18.1997 21.6226 18.5942 21.1015 18.9311 20.6185L23.2926 14.3779C24.0342 13.3187 25.1559 12.1431 26.1811 12.768C26.8303 13.1641 27.0912 14.1767 26.972 15.0473C26.8529 15.9179 26.4399 16.6826 26.0332 17.4135C25.4846 18.3964 24.9073 19.3983 24.0815 20.0317C23.2556 20.6651 22.1154 20.8451 21.3265 20.1461C20.1514 19.106 20.3815 16.8733 21.0327 15.293C21.684 13.7128 22.6557 12.1812 22.592 10.4209C22.5543 9.70636 22.3565 9.01056 22.0144 8.38799C21.6722 7.76543 21.1949 7.23301 20.6198 6.83245C19.5453 6.09104 18.2716 5.88345 17.0369 5.92369C15.0544 5.98936 13.0206 6.70959 11.5743 8.35764C10.128 10.0057 9.39865 12.6875 10.1136 14.935C10.582 16.4178 11.6359 17.8117 11.3154 19.3475C10.9518 21.0887 9.072 21.6014 7.61748 21.254C5.26108 20.682 3.05876 18.3752 2.90879 15.4604C2.8184 13.6831 3.52511 11.8741 4.72488 10.8446C6.2287 9.55026 8.23791 9.54178 9.89992 8.57371C11.6749 7.53785 12.8952 5.51062 14.3929 3.95789C15.8906 2.40517 18.0908 1.30576 19.796 2.51532C20.3316 2.88436 20.7141 3.44648 20.8684 4.09135C21.2793 5.95971 19.5392 7.90432 20.1678 9.67948C20.5787 10.817 22.6208 10.6454 23.3439 9.7748C24.0671 8.90417 23.7445 7.07818 22.7625 6.71806C22.0805 6.46387 21.1765 7.56539 21.0553 7.87255C19.7472 11.1734 19.0202 14.6883 18.9085 18.2523C18.8859 18.9598 18.8818 19.697 18.6085 20.3198C18.4385 20.6701 18.2213 20.9939 17.9635 21.2815C16.9589 22.508 15.9091 23.7239 14.6045 24.4336C13.3 25.1432 11.7099 25.2661 10.5101 24.3382C9.31031 23.4104 8.7474 21.2624 9.56916 19.8516C10.2615 18.6569 11.5886 18.354 12.7781 18.157C14.1546 17.9197 15.6666 17.7164 16.8294 18.64C19.1673 20.4956 19.607 25.3529 23.3583 23.3003C25.5709 22.0865 26.1277 18.784 24.9566 16.3395C21.7374 9.59898 9.12952 11.0225 4.09007 12.696Z" stroke="#2FA83E" stroke-linecap="round" stroke-linejoin="round"/>
<path d="M34 22.6863H39.4886V16.0719H45.3769V12.1242H39.4886V8.15033H46.8689V3.99346H34V22.6863Z" fill="#313335"/>
<path d="M51.4513 23C53.6894 23 54.915 22.085 55.5811 21.0915V22.6863H60.2171V13.8235C60.2171 10.1895 57.7659 8.64706 53.9292 8.64706C50.1191 8.64706 47.4814 10.268 47.2682 13.5621H51.7444C51.851 12.6993 52.3305 11.9412 53.6361 11.9412C55.1548 11.9412 55.4745 12.8039 55.4745 14.1111V14.4248H54.1423C49.5063 14.4248 46.7354 15.6797 46.7354 18.8954C46.7354 21.7974 48.9468 23 51.4513 23ZM53.1032 19.8366C51.9842 19.8366 51.4513 19.3399 51.4513 18.5556C51.4513 17.4314 52.3039 17.0654 54.2222 17.0654H55.4745V17.902C55.4745 19.0784 54.462 19.8366 53.1032 19.8366Z" fill="#313335"/>
<path d="M71.2316 23C74.5088 23 77.1465 20.6471 77.1465 15.9412V15.732C77.1465 11.0523 74.5088 8.64706 71.2583 8.64706C69.1534 8.64706 67.7147 9.7451 66.9154 11.0523V3H62.1462V22.6863H66.9154V20.5686C67.6081 22.0327 69.1534 23 71.2316 23ZM69.5531 19.4183C67.8213 19.4183 66.7822 18.2418 66.7822 15.915V15.7059C66.7822 13.4052 67.8213 12.1765 69.5531 12.1765C71.2316 12.1765 72.2974 13.3268 72.2974 15.732V15.9412C72.2974 18.1895 71.3382 19.4183 69.5531 19.4183Z" fill="#313335"/>
<path d="M78.4749 22.6863H83.2441V16.2026C83.2441 14.0065 84.8427 13.1176 87.7469 13.1961V8.83007C85.5887 8.80392 84.1233 9.69281 83.2441 11.732V9.01307H78.4749V22.6863Z" fill="#313335"/>
<path d="M89.2126 22.6863H93.9818V9.01307H89.2126V22.6863Z" fill="#313335"/>
<path d="M96.1453 22.6863H100.915V16.6993L104.671 22.6863H110L105.071 15.1569L109.627 9.01307H104.671L100.915 14.4248V3H96.1453V22.6863Z" fill="#313335"/>
<path d="M94 5.51351C94 6.94595 92.9086 8 91.4873 8C90.066 8 89 6.94595 89 5.51351C89 4.08108 90.066 3 91.4873 3C92.9086 3 94 4.08108 94 5.51351Z" fill="#272727"/>
</svg>
