<svg  viewBox="0 0 411 356" fill="none" xmlns="http://www.w3.org/2000/svg">
<g clip-path="url(#clip0)">
<path d="M342.561 84.3374H340.612V30.9186C340.612 22.7185 337.356 14.8542 331.562 9.05585C325.767 3.25749 317.907 5.41318e-06 309.712 0H196.602C192.544 0 188.526 0.799732 184.777 2.35354C181.028 3.90734 177.622 6.18479 174.753 9.05585C171.883 11.9269 169.607 15.3353 168.055 19.0866C166.502 22.8378 165.702 26.8583 165.702 30.9186V323.983C165.702 332.184 168.958 340.048 174.753 345.846C180.548 351.645 188.407 354.902 196.602 354.902H309.712C317.907 354.902 325.767 351.644 331.561 345.846C337.356 340.048 340.611 332.184 340.611 323.983V122.362H342.56L342.561 84.3374Z" fill="#CCC9CF"/>
<path d="M310.959 8.04102H296.196C296.875 9.70676 297.134 11.514 296.95 13.3036C296.767 15.0932 296.146 16.8102 295.143 18.3033C294.14 19.7963 292.786 21.0197 291.199 21.8655C289.612 22.7113 287.842 23.1537 286.044 23.1536H221.245C219.447 23.1536 217.677 22.7111 216.09 21.8652C214.503 21.0193 213.149 19.7959 212.146 18.3029C211.143 16.8098 210.523 15.0929 210.339 13.3034C210.156 11.5139 210.415 9.70669 211.094 8.04102H197.304C191.184 8.04102 185.315 10.4737 180.987 14.8038C176.66 19.134 174.229 25.0069 174.229 31.1307V323.77C174.229 329.894 176.66 335.767 180.987 340.097C185.315 344.427 191.184 346.86 197.304 346.86H310.959C317.079 346.86 322.948 344.427 327.276 340.097C331.603 335.767 334.035 329.894 334.035 323.77V31.1302C334.034 25.0066 331.603 19.1337 327.276 14.8037C322.948 10.4736 317.079 8.04101 310.959 8.04102Z" fill="white"/>
<path d="M219.753 76.2995C219.138 76.305 218.527 76.1807 217.963 75.9347C217.398 75.6887 216.891 75.3265 216.476 74.8717C215.983 74.3008 215.613 73.634 215.39 72.9132C215.166 72.1925 215.095 71.4333 215.179 70.6834C215.296 69.2551 215.894 67.9089 216.876 66.865C217.347 66.3552 217.917 65.9471 218.552 65.6658C219.187 65.3845 219.872 65.2359 220.566 65.229C221.211 65.2262 221.85 65.3593 222.441 65.6197C223.031 65.8802 223.56 66.2621 223.993 66.7406C224.485 67.2964 224.856 67.948 225.083 68.6545C225.311 69.361 225.389 70.107 225.314 70.8453C225.222 72.3606 224.569 73.7871 223.482 74.8461C222.47 75.7887 221.136 76.3086 219.753 76.2995ZM220.566 67.0741C218.761 67.0741 217.202 68.7306 217.016 70.8452C216.954 71.3401 216.995 71.8425 217.136 72.3208C217.277 72.7992 217.515 73.2433 217.836 73.6256C218.078 73.8923 218.374 74.1042 218.705 74.2472C219.036 74.3901 219.393 74.4608 219.753 74.4544C221.441 74.4544 223.247 73.2883 223.477 70.6832C223.53 70.1998 223.482 69.7107 223.337 69.2466C223.192 68.7825 222.952 68.3536 222.634 67.9867C222.372 67.6979 222.053 67.4674 221.697 67.3102C221.341 67.1529 220.955 67.0725 220.566 67.0741Z" fill="#313335"/>
<path d="M219.813 81.8347C218.387 81.858 216.972 81.5775 215.662 81.0118C214.353 80.4461 213.178 79.6082 212.217 78.5537C211.255 77.4992 210.529 76.2521 210.086 74.8953C209.643 73.5385 209.493 72.1029 209.647 70.6838C209.949 67.7052 211.333 64.941 213.536 62.9154C215.74 60.8897 218.609 59.7435 221.601 59.6938C224.921 59.6938 227.652 60.761 229.5 62.78C231.252 64.6944 232.072 67.3894 231.81 70.3685C231.561 73.1906 230.365 74.6604 229.405 75.3965C228.981 75.7423 228.491 75.9983 227.965 76.1491C227.439 76.3 226.888 76.3424 226.346 76.2738C224.828 76.0046 223.149 74.6251 223.413 71.6233L223.902 66.0735C223.925 65.8307 224.042 65.6067 224.23 65.4505C224.417 65.2944 224.658 65.2187 224.901 65.2401C225.144 65.2615 225.368 65.3783 225.525 65.5648C225.682 65.7513 225.759 65.9924 225.739 66.2355L225.25 71.7851C225.119 73.2774 225.649 74.2764 226.668 74.4571C227.254 74.5027 227.835 74.3138 228.283 73.9319C228.949 73.4211 229.783 72.3602 229.973 70.2066C230.193 67.7135 229.559 65.5764 228.14 64.0261C226.651 62.399 224.39 61.5389 221.601 61.5389C219.07 61.5869 216.644 62.5597 214.78 64.2739C212.917 65.9881 211.744 68.3253 211.484 70.8448C211.352 72.0089 211.471 73.1877 211.832 74.3023C212.193 75.4168 212.787 76.4413 213.576 77.3072C214.365 78.1731 215.329 78.8603 216.405 79.323C217.481 79.7856 218.643 80.0129 219.813 79.9897C221.258 80.0678 222.7 79.8061 224.025 79.2256C224.25 79.1321 224.503 79.1316 224.729 79.2243C224.954 79.317 225.134 79.4953 225.229 79.7203C225.323 79.9453 225.325 80.1985 225.233 80.4246C225.141 80.6507 224.964 80.8312 224.739 80.9267C223.188 81.6022 221.503 81.9129 219.813 81.8347Z" fill="#313335"/>
<path d="M210.079 213.7C209.896 213.7 209.718 213.646 209.566 213.544C209.415 213.443 209.297 213.299 209.227 213.13C209.157 212.962 209.139 212.776 209.174 212.597C209.21 212.418 209.298 212.254 209.427 212.125L215.42 206.129C215.593 205.958 215.827 205.862 216.07 205.863C216.314 205.864 216.547 205.961 216.719 206.133C216.891 206.305 216.988 206.539 216.989 206.782C216.99 207.026 216.895 207.26 216.724 207.433L210.731 213.43C210.645 213.515 210.544 213.583 210.432 213.63C210.32 213.676 210.2 213.7 210.079 213.7ZM225.292 211.394C225.109 211.394 224.931 211.339 224.78 211.238C224.628 211.137 224.51 210.993 224.44 210.824C224.37 210.655 224.352 210.47 224.388 210.291C224.423 210.112 224.511 209.948 224.64 209.819L229.711 204.745C229.884 204.574 230.118 204.478 230.361 204.479C230.605 204.48 230.838 204.577 231.01 204.749C231.182 204.922 231.279 205.155 231.28 205.398C231.281 205.642 231.186 205.876 231.015 206.049L225.944 211.123C225.858 211.209 225.757 211.277 225.645 211.324C225.533 211.37 225.413 211.394 225.292 211.394ZM222.526 211.394C222.405 211.394 222.285 211.37 222.173 211.324C222.061 211.277 221.959 211.209 221.874 211.123L218.186 207.433C218.099 207.348 218.03 207.246 217.983 207.134C217.936 207.022 217.912 206.901 217.911 206.779C217.911 206.658 217.934 206.537 217.981 206.425C218.027 206.312 218.095 206.21 218.181 206.124C218.267 206.038 218.369 205.97 218.482 205.923C218.594 205.877 218.715 205.853 218.836 205.854C218.958 205.854 219.078 205.879 219.191 205.926C219.303 205.973 219.404 206.042 219.49 206.129L223.178 209.819C223.307 209.948 223.394 210.112 223.43 210.291C223.466 210.47 223.447 210.655 223.378 210.824C223.308 210.993 223.19 211.137 223.038 211.238C222.886 211.339 222.708 211.394 222.526 211.394Z" fill="#313335"/>
<path d="M231.745 206.32C231.289 206.32 230.844 206.184 230.465 205.931C230.086 205.677 229.79 205.317 229.616 204.896C229.441 204.474 229.396 204.011 229.484 203.563C229.573 203.116 229.793 202.705 230.115 202.382C230.438 202.06 230.848 201.84 231.296 201.751C231.743 201.662 232.206 201.708 232.627 201.882C233.048 202.057 233.408 202.353 233.662 202.732C233.915 203.111 234.05 203.557 234.05 204.013C234.05 204.625 233.806 205.211 233.374 205.643C232.942 206.076 232.356 206.319 231.745 206.32ZM231.745 203.552C231.654 203.552 231.565 203.579 231.489 203.63C231.413 203.68 231.354 203.752 231.319 203.837C231.284 203.921 231.275 204.014 231.293 204.103C231.311 204.193 231.355 204.275 231.419 204.339C231.484 204.404 231.566 204.448 231.655 204.466C231.745 204.483 231.837 204.474 231.922 204.439C232.006 204.404 232.078 204.345 232.128 204.27C232.179 204.194 232.206 204.104 232.206 204.013C232.206 203.891 232.157 203.774 232.071 203.687C231.985 203.601 231.867 203.552 231.745 203.552Z" fill="#313335"/>
<path d="M223.909 214.161C223.453 214.161 223.007 214.026 222.628 213.772C222.249 213.519 221.953 213.159 221.779 212.737C221.605 212.316 221.559 211.852 221.648 211.405C221.737 210.957 221.956 210.547 222.279 210.224C222.601 209.901 223.012 209.682 223.459 209.593C223.906 209.504 224.369 209.549 224.791 209.724C225.212 209.899 225.572 210.194 225.825 210.573C226.078 210.953 226.214 211.399 226.214 211.855C226.213 212.466 225.97 213.053 225.538 213.485C225.106 213.917 224.52 214.16 223.909 214.161ZM223.909 211.394C223.817 211.394 223.728 211.421 223.652 211.471C223.577 211.522 223.518 211.594 223.483 211.678C223.448 211.763 223.439 211.855 223.456 211.945C223.474 212.034 223.518 212.116 223.583 212.181C223.647 212.246 223.729 212.289 223.819 212.307C223.908 212.325 224.001 212.316 224.085 212.281C224.169 212.246 224.241 212.187 224.292 212.111C224.343 212.035 224.37 211.946 224.37 211.855C224.369 211.733 224.321 211.615 224.234 211.529C224.148 211.442 224.031 211.394 223.909 211.394Z" fill="#313335"/>
<path d="M217.454 207.703C216.998 207.703 216.552 207.568 216.173 207.315C215.794 207.061 215.499 206.701 215.324 206.28C215.15 205.858 215.104 205.394 215.193 204.947C215.282 204.5 215.502 204.089 215.824 203.766C216.146 203.444 216.557 203.224 217.004 203.135C217.451 203.046 217.915 203.092 218.336 203.266C218.757 203.441 219.117 203.736 219.37 204.116C219.624 204.495 219.759 204.941 219.759 205.397C219.758 206.009 219.515 206.595 219.083 207.027C218.651 207.459 218.065 207.703 217.454 207.703ZM217.454 204.936C217.363 204.936 217.274 204.963 217.198 205.013C217.122 205.064 217.063 205.136 217.028 205.221C216.993 205.305 216.984 205.398 217.002 205.487C217.02 205.577 217.063 205.659 217.128 205.723C217.192 205.788 217.275 205.832 217.364 205.849C217.453 205.867 217.546 205.858 217.63 205.823C217.715 205.788 217.787 205.729 217.837 205.653C217.888 205.577 217.915 205.488 217.915 205.397C217.915 205.275 217.866 205.157 217.78 205.071C217.693 204.985 217.576 204.936 217.454 204.936Z" fill="#313335"/>
<path d="M208.695 216.467C208.239 216.467 207.794 216.332 207.415 216.079C207.035 215.825 206.74 215.465 206.566 215.044C206.391 214.622 206.345 214.159 206.434 213.711C206.523 213.264 206.743 212.853 207.065 212.53C207.388 212.208 207.798 211.988 208.245 211.899C208.693 211.81 209.156 211.856 209.577 212.03C209.998 212.205 210.358 212.5 210.612 212.88C210.865 213.259 211 213.705 211 214.161C210.999 214.773 210.756 215.359 210.324 215.791C209.892 216.223 209.306 216.467 208.695 216.467ZM208.695 213.7C208.604 213.7 208.515 213.727 208.439 213.778C208.363 213.828 208.304 213.9 208.269 213.985C208.234 214.069 208.225 214.162 208.243 214.251C208.261 214.341 208.305 214.423 208.369 214.487C208.434 214.552 208.516 214.596 208.605 214.613C208.695 214.631 208.787 214.622 208.872 214.587C208.956 214.552 209.028 214.493 209.078 214.417C209.129 214.341 209.156 214.252 209.156 214.161C209.156 214.039 209.107 213.922 209.021 213.835C208.935 213.749 208.817 213.7 208.695 213.7Z" fill="#313335"/>
<path d="M296.195 287.61H276.832C275.977 287.609 275.157 287.269 274.552 286.663C273.947 286.058 273.606 285.237 273.605 284.381V270.543C273.606 269.687 273.947 268.866 274.552 268.261C275.157 267.656 275.977 267.315 276.832 267.314H296.195C297.05 267.315 297.87 267.656 298.475 268.261C299.08 268.866 299.421 269.687 299.422 270.543V284.381C299.421 285.237 299.08 286.058 298.475 286.663C297.87 287.269 297.05 287.609 296.195 287.61ZM276.832 269.159C276.466 269.16 276.114 269.306 275.855 269.565C275.596 269.824 275.45 270.176 275.449 270.543V284.381C275.45 284.748 275.596 285.1 275.855 285.359C276.114 285.619 276.466 285.765 276.832 285.765H296.195C296.561 285.765 296.913 285.619 297.172 285.359C297.431 285.1 297.577 284.748 297.578 284.381V270.543C297.577 270.176 297.431 269.824 297.172 269.565C296.913 269.306 296.561 269.16 296.195 269.159L276.832 269.159Z" fill="#313335"/>
<path d="M286.513 279.307C286.308 279.307 286.109 279.239 285.947 279.113L277.649 272.655C277.554 272.581 277.474 272.488 277.414 272.383C277.354 272.278 277.316 272.162 277.301 272.041C277.286 271.921 277.294 271.799 277.326 271.682C277.359 271.566 277.413 271.456 277.488 271.361C277.562 271.265 277.654 271.185 277.76 271.125C277.865 271.065 277.981 271.027 278.101 271.012C278.221 270.996 278.343 271.005 278.46 271.037C278.577 271.07 278.686 271.124 278.782 271.199L286.514 277.216L294.245 271.199C294.341 271.124 294.45 271.07 294.567 271.037C294.684 271.005 294.806 270.996 294.926 271.012C295.046 271.027 295.162 271.065 295.267 271.125C295.373 271.185 295.465 271.265 295.539 271.361C295.614 271.456 295.668 271.566 295.701 271.682C295.733 271.799 295.741 271.921 295.726 272.041C295.711 272.162 295.673 272.278 295.613 272.383C295.553 272.488 295.473 272.581 295.378 272.655L287.08 279.113C286.918 279.239 286.719 279.307 286.513 279.307Z" fill="#313335"/>
<path d="M390.505 300.381L283.853 300.423C283.718 300.423 283.588 300.37 283.493 300.274C283.397 300.178 283.344 300.049 283.344 299.913C283.344 299.778 283.397 299.648 283.493 299.553C283.588 299.457 283.718 299.403 283.853 299.403L390.505 299.361C390.64 299.361 390.77 299.415 390.866 299.51C390.961 299.606 391.015 299.736 391.015 299.871C391.015 300.006 390.961 300.136 390.866 300.232C390.77 300.327 390.64 300.381 390.505 300.381Z" fill="#CCC9CF"/>
<path d="M389.086 307.015C393.029 307.015 396.225 303.817 396.225 299.871C396.225 295.926 393.029 292.728 389.086 292.728C385.143 292.728 381.946 295.926 381.946 299.871C381.946 303.817 385.143 307.015 389.086 307.015Z" fill="#2FA83E"/>
<path d="M387.955 163.631L280.284 163.673C280.149 163.673 280.019 163.62 279.923 163.524C279.828 163.428 279.774 163.299 279.774 163.163C279.774 163.028 279.828 162.898 279.923 162.803C280.019 162.707 280.149 162.653 280.284 162.653L387.955 162.611C388.091 162.611 388.22 162.665 388.316 162.761C388.412 162.856 388.465 162.986 388.465 163.121C388.465 163.256 388.412 163.386 388.316 163.482C388.22 163.577 388.091 163.631 387.955 163.631Z" fill="#CCC9CF"/>
<path d="M389.086 170.775C393.029 170.775 396.225 167.577 396.225 163.632C396.225 159.686 393.029 156.488 389.086 156.488C385.143 156.488 381.946 159.686 381.946 163.632C381.946 167.577 385.143 170.775 389.086 170.775Z" fill="#2FA83E"/>
<path d="M112.293 93.7254L219.964 93.7676C220.1 93.7676 220.229 93.7139 220.325 93.6183C220.421 93.5226 220.474 93.3929 220.474 93.2577C220.474 93.1224 220.421 92.9927 220.325 92.8971C220.229 92.8014 220.1 92.7477 219.964 92.7477L112.293 92.7054C112.158 92.7054 112.028 92.7592 111.932 92.8548C111.837 92.9504 111.783 93.0802 111.783 93.2154C111.783 93.3507 111.837 93.4804 111.932 93.576C112.028 93.6716 112.158 93.7254 112.293 93.7254Z" fill="#CCC9CF"/>
<path d="M111.163 100.87C115.106 100.87 118.302 97.6713 118.302 93.7259C118.302 89.7806 115.106 86.5823 111.163 86.5823C107.22 86.5823 104.023 89.7806 104.023 93.7259C104.023 97.6713 107.22 100.87 111.163 100.87Z" fill="#2FA83E"/>
<path d="M112.293 232.006L219.964 232.048C220.1 232.048 220.229 231.995 220.325 231.899C220.421 231.803 220.474 231.674 220.474 231.538C220.474 231.403 220.421 231.273 220.325 231.178C220.229 231.082 220.1 231.028 219.964 231.028L112.293 230.986C112.158 230.986 112.028 231.04 111.932 231.135C111.837 231.231 111.783 231.361 111.783 231.496C111.783 231.631 111.837 231.761 111.932 231.857C112.028 231.952 112.158 232.006 112.293 232.006Z" fill="#CCC9CF"/>
<path d="M111.163 239.15C115.106 239.15 118.302 235.952 118.302 232.007C118.302 228.061 115.106 224.863 111.163 224.863C107.22 224.863 104.023 228.061 104.023 232.007C104.023 235.952 107.22 239.15 111.163 239.15Z" fill="#2FA83E"/>
<path d="M286.513 300.424C281.974 300.424 277.538 299.077 273.764 296.554C269.99 294.031 267.049 290.445 265.312 286.249C263.575 282.053 263.121 277.437 264.006 272.982C264.892 268.528 267.077 264.437 270.286 261.226C273.496 258.014 277.585 255.828 282.036 254.942C286.488 254.056 291.102 254.51 295.295 256.248C299.488 257.986 303.072 260.929 305.593 264.705C308.115 268.481 309.461 272.921 309.461 277.462C309.454 283.55 307.034 289.386 302.732 293.691C298.43 297.996 292.597 300.417 286.513 300.424ZM286.513 255.521C282.176 255.521 277.937 256.808 274.33 259.219C270.724 261.63 267.914 265.056 266.254 269.066C264.595 273.075 264.16 277.486 265.006 281.743C265.853 285.999 267.941 289.908 271.008 292.977C274.074 296.045 277.981 298.135 282.235 298.982C286.489 299.828 290.898 299.394 294.904 297.733C298.911 296.072 302.336 293.26 304.745 289.652C307.155 286.044 308.441 281.802 308.441 277.462C308.434 271.645 306.122 266.068 302.011 261.955C297.9 257.841 292.327 255.527 286.513 255.521Z" fill="#CCC9CF"/>
<path d="M220.22 232.049C215.681 232.049 211.245 230.702 207.471 228.179C203.697 225.656 200.756 222.07 199.019 217.874C197.282 213.679 196.828 209.062 197.713 204.608C198.599 200.153 200.784 196.062 203.993 192.851C207.203 189.64 211.292 187.453 215.743 186.567C220.195 185.681 224.809 186.135 229.002 187.873C233.195 189.611 236.779 192.554 239.3 196.33C241.822 200.106 243.168 204.546 243.168 209.087C243.161 215.175 240.741 221.011 236.439 225.316C232.137 229.621 226.304 232.042 220.22 232.049ZM220.22 187.146C215.883 187.146 211.644 188.433 208.038 190.844C204.431 193.255 201.621 196.681 199.961 200.691C198.302 204.7 197.867 209.112 198.713 213.368C199.56 217.624 201.648 221.533 204.715 224.602C207.781 227.671 211.688 229.76 215.942 230.607C220.196 231.453 224.605 231.019 228.611 229.358C232.618 227.698 236.043 224.885 238.452 221.277C240.862 217.669 242.148 213.427 242.148 209.087C242.141 203.27 239.829 197.693 235.718 193.58C231.607 189.466 226.034 187.153 220.22 187.146Z" fill="#CCC9CF"/>
<path d="M281.924 163.674C277.385 163.674 272.948 162.327 269.174 159.804C265.401 157.281 262.459 153.695 260.723 149.499C258.986 145.304 258.531 140.687 259.417 136.233C260.302 131.778 262.488 127.687 265.697 124.476C268.906 121.265 272.995 119.078 277.447 118.192C281.898 117.306 286.512 117.76 290.705 119.498C294.898 121.236 298.482 124.179 301.004 127.955C303.525 131.731 304.871 136.171 304.871 140.712C304.864 146.8 302.445 152.636 298.142 156.941C293.84 161.246 288.008 163.667 281.924 163.674ZM281.924 118.771C277.587 118.771 273.347 120.058 269.741 122.469C266.135 124.88 263.325 128.306 261.665 132.316C260.005 136.325 259.571 140.737 260.417 144.993C261.263 149.249 263.352 153.158 266.418 156.227C269.485 159.296 273.392 161.385 277.646 162.232C281.899 163.078 286.308 162.644 290.315 160.983C294.322 159.323 297.746 156.51 300.156 152.902C302.565 149.294 303.851 145.052 303.851 140.712C303.845 134.895 301.533 129.318 297.422 125.205C293.311 121.091 287.737 118.778 281.924 118.771Z" fill="#CCC9CF"/>
<path d="M220.73 93.726C216.191 93.726 211.755 92.3793 207.981 89.8562C204.207 87.3332 201.266 83.747 199.529 79.5513C197.792 75.3556 197.338 70.7388 198.223 66.2846C199.109 61.8305 201.294 57.7391 204.503 54.5278C207.713 51.3166 211.802 49.1297 216.253 48.2437C220.705 47.3577 225.319 47.8124 229.512 49.5504C233.705 51.2883 237.289 54.2313 239.81 58.0074C242.332 61.7834 243.678 66.2228 243.678 70.7642C243.671 76.8519 241.251 82.6884 236.949 86.993C232.647 91.2977 226.814 93.7191 220.73 93.726ZM220.73 48.823C216.393 48.823 212.154 50.1098 208.548 52.5208C204.942 54.9317 202.131 58.3585 200.471 62.3677C198.812 66.3769 198.377 70.7886 199.223 75.0448C200.07 79.3009 202.158 83.2105 205.225 86.279C208.291 89.3475 212.199 91.4373 216.452 92.2839C220.706 93.1305 225.115 92.6959 229.121 91.0353C233.128 89.3746 236.553 86.5623 238.962 82.9541C241.372 79.3459 242.658 75.1038 242.658 70.7642C242.651 64.9471 240.339 59.3701 236.228 55.2567C232.117 51.1434 226.544 48.8296 220.73 48.823Z" fill="#CCC9CF"/>
<path d="M76.7163 249.303C76.089 248.824 75.5695 248.219 75.1915 247.526C74.8135 246.833 74.5856 246.068 74.5225 245.282C74.5085 245.098 74.5042 244.914 74.5095 244.73L50.7621 228.727C49.9849 228.198 49.3994 227.432 49.0928 226.543C48.7861 225.654 48.7749 224.689 49.0606 223.793L60.4105 195.578C60.8989 194.363 61.8484 193.392 63.0511 192.876C64.2537 192.361 65.6116 192.343 66.8273 192.827C68.043 193.311 69.0175 194.257 69.5375 195.459C70.0575 196.66 70.0805 198.019 69.6015 199.237L60.4379 222.551L78.9293 239.357C79.1733 239.301 79.4209 239.263 79.6703 239.242C81.0984 239.128 82.5159 239.566 83.632 240.465C84.7481 241.363 85.4784 242.655 85.6729 244.075C85.8675 245.496 85.5117 246.937 84.6785 248.103C83.8452 249.269 82.5977 250.072 81.1917 250.347C80.8309 250.416 80.4644 250.452 80.097 250.452C78.8742 250.453 77.6856 250.049 76.7163 249.303Z" fill="#FFCAD0"/>
<path d="M50.7714 212.192C50.6324 211.867 50.5651 211.516 50.574 211.163C50.583 210.81 50.6679 210.463 50.8231 210.146L56.2413 199.065C56.788 197.343 57.995 195.908 59.5975 195.074C61.2001 194.241 63.0675 194.078 64.7903 194.62C66.5131 195.162 67.9507 196.366 68.7879 197.967C69.6252 199.568 69.7936 201.436 69.2565 203.162L67.2783 215.378C67.2219 215.727 67.0909 216.059 66.8945 216.353C66.6981 216.646 66.4407 216.894 66.14 217.079C65.8393 217.264 65.5023 217.382 65.1519 217.425C64.8015 217.468 64.446 217.434 64.1096 217.327L52.2859 213.568C51.9494 213.461 51.6399 213.283 51.3785 213.045C51.1171 212.808 50.91 212.517 50.7714 212.192Z" fill="#2FA83E"/>
<path d="M88.1421 348.993H94.3943L97.3684 324.864L88.1411 324.864L88.1421 348.993Z" fill="#FFCAD0"/>
<path d="M86.5469 346.951L98.8594 346.95H98.8599C99.8903 346.95 100.911 347.153 101.863 347.548C102.815 347.942 103.68 348.52 104.408 349.249C105.137 349.979 105.715 350.844 106.109 351.797C106.504 352.749 106.707 353.77 106.706 354.801V355.056L86.5473 355.057L86.5469 346.951Z" fill="#313335"/>
<path d="M27.0085 344.561L33.0639 346.117L41.9475 323.488L33.0103 321.191L27.0085 344.561Z" fill="#FFCAD0"/>
<path d="M25.972 342.185L37.897 345.251L37.8975 345.252C38.8955 345.508 39.8332 345.959 40.6571 346.578C41.481 347.197 42.1749 347.973 42.6992 348.861C43.2235 349.748 43.568 350.73 43.7129 351.751C43.8578 352.772 43.8004 353.811 43.5439 354.81L43.4804 355.057L23.9556 350.036L25.972 342.185Z" fill="#313335"/>
<path d="M70.8585 183.46C77.7761 183.46 83.3838 177.849 83.3838 170.927C83.3838 164.006 77.7761 158.395 70.8585 158.395C63.941 158.395 58.3333 164.006 58.3333 170.927C58.3333 177.849 63.941 183.46 70.8585 183.46Z" fill="#FFCAD0"/>
<path d="M64.523 223.056C61.5431 219.987 59.013 216.511 57.0083 212.731C55.9421 210.659 55.3214 208.386 55.1861 206.059C55.0508 203.732 55.404 201.403 56.2229 199.221C57.059 196.991 58.3527 194.96 60.0206 193.26C61.6886 191.56 63.6938 190.228 65.9072 189.35C69.7889 187.774 74.1197 187.709 78.047 189.168C81.9743 190.626 85.2137 193.503 87.1274 197.232C90.2614 203.369 91.4896 209.369 90.778 215.067C89.4173 225.958 88.6208 231.588 88.4105 231.799L88.3405 231.869L65.0412 232.905L64.523 223.056Z" fill="#2FA83E"/>
<path d="M65.9076 229.89L86.7579 228.852C87.2844 228.826 87.8006 229.005 88.1983 229.351C88.5959 229.697 88.8442 230.184 88.8911 230.709L98.4825 338.288C98.508 338.574 98.473 338.862 98.3797 339.134C98.2864 339.405 98.137 339.654 97.9411 339.863C97.7453 340.073 97.5075 340.239 97.2432 340.35C96.9789 340.462 96.6941 340.516 96.4074 340.51L88.2615 340.337C87.8135 340.327 87.3812 340.17 87.0312 339.891C86.6812 339.611 86.4331 339.223 86.3252 338.788L70.7634 276.045C70.6616 275.635 70.4349 275.266 70.1146 274.99C69.7943 274.714 69.3962 274.544 68.9754 274.505C68.5546 274.465 68.1318 274.557 67.7656 274.768C67.3993 274.979 67.1076 275.299 66.9308 275.683L37.4405 339.771C37.2402 340.207 36.8932 340.558 36.4603 340.763C36.0274 340.968 35.5363 341.014 35.0728 340.893L26.875 338.753C26.3676 338.621 25.9305 338.299 25.6546 337.853C25.3787 337.407 25.2852 336.871 25.3937 336.358C28.0909 323.618 44.2474 250.657 64.5892 230.462C64.9432 230.116 65.4127 229.912 65.9076 229.89Z" fill="#313335"/>
<path d="M105.391 241.969C104.637 241.737 103.941 241.348 103.347 240.828C102.753 240.308 102.276 239.669 101.945 238.952C101.869 238.785 101.801 238.614 101.743 238.44L73.9349 231.621C73.0229 231.393 72.209 230.876 71.6145 230.147C71.0201 229.419 70.6768 228.517 70.636 227.577L71.5563 197.177C71.5959 195.869 72.1519 194.629 73.1028 193.73C74.0537 192.831 75.3218 192.345 76.6297 192.38C77.9375 192.414 79.1785 192.965 80.081 193.913C80.9834 194.861 81.4737 196.128 81.4447 197.437L80.8855 222.482L104.038 231.87C104.248 231.734 104.467 231.612 104.693 231.506H104.693C105.52 231.123 106.428 230.946 107.338 230.992C108.248 231.038 109.134 231.305 109.917 231.77C110.701 232.235 111.361 232.884 111.838 233.661C112.315 234.438 112.596 235.319 112.657 236.229C112.718 237.139 112.556 238.05 112.186 238.883C111.816 239.717 111.249 240.448 110.534 241.013C109.819 241.578 108.977 241.96 108.081 242.127C107.185 242.294 106.262 242.24 105.391 241.969V241.969Z" fill="#FFCAD0"/>
<path d="M68.5899 212.325C68.3499 212.066 68.1686 211.758 68.0583 211.423C67.9481 211.087 67.9115 210.732 67.951 210.381L69.3293 198.122C69.2653 196.316 69.9197 194.559 71.1489 193.235C72.378 191.911 74.0817 191.129 75.8864 191.06C77.691 190.991 79.4494 191.64 80.776 192.867C82.1027 194.093 82.8892 195.795 82.9633 197.601L85.2064 209.771C85.2704 210.119 85.2588 210.476 85.1725 210.818C85.0861 211.161 84.927 211.481 84.706 211.756C84.4849 212.031 84.2072 212.256 83.8916 212.414C83.5761 212.572 83.2301 212.661 82.8774 212.673L70.4787 213.111C70.1259 213.124 69.7745 213.06 69.4485 212.925C69.1226 212.789 68.8297 212.584 68.5899 212.325Z" fill="#2FA83E"/>
<path d="M52.911 187.473L54.2197 183.241L55.1146 187.991L62.4645 187.796L62.4307 183.113L65.2247 187.735L71.885 186.262C70.4621 184.364 69.0223 182.438 68.1123 180.201C67.2023 177.965 66.871 175.343 67.7213 173.079C69.8235 167.482 77.7936 169.048 82.1528 169.001C83.4246 168.987 84.8603 168.895 85.6932 167.855C86.3203 167.072 86.4231 165.951 86.3913 164.915C86.2276 159.58 83.0268 154.491 78.5017 152.37C76.2867 151.35 73.8173 151.015 71.4108 151.409C70.1555 151.608 68.9368 151.992 67.7944 152.549C66.776 153.047 65.7063 154.232 64.6097 154.2C63.6882 154.173 62.4682 153.213 61.4654 153.049C60.2574 152.862 59.0249 152.905 57.8328 153.176C55.4371 153.71 53.2775 155.003 51.6745 156.863C48.2679 160.824 47.2557 166.66 47.8494 172.033C48.4432 177.407 50.452 182.46 52.4385 187.426" fill="#313335"/>
<path d="M410.477 355.999H1.49725C1.36201 355.999 1.2323 355.946 1.13667 355.85C1.04103 355.754 0.987305 355.625 0.987305 355.489C0.987305 355.354 1.04103 355.225 1.13667 355.129C1.2323 355.033 1.36201 354.979 1.49725 354.979H410.477C410.613 354.979 410.742 355.033 410.838 355.129C410.934 355.225 410.987 355.354 410.987 355.489C410.987 355.625 410.934 355.754 410.838 355.85C410.742 355.946 410.613 355.999 410.477 355.999Z" fill="#CCC9CF"/>
<path d="M403.578 349.676C405.134 348.413 406.269 346.705 406.829 344.779C407.244 342.831 406.414 340.544 404.56 339.79C402.477 338.985 400.251 340.433 398.566 341.891C396.881 343.348 394.942 345.017 392.732 344.703C393.864 343.671 394.709 342.363 395.186 340.906C395.662 339.45 395.753 337.895 395.45 336.392C395.359 335.768 395.095 335.181 394.688 334.698C393.537 333.461 391.437 333.995 390.048 334.969C385.646 338.07 384.418 344.051 384.401 349.439C383.952 347.49 384.325 345.466 384.316 343.509C384.308 341.552 383.758 339.273 382.081 338.239C381.042 337.68 379.874 337.403 378.695 337.434C376.713 337.367 374.512 337.562 373.157 339.01C371.464 340.806 371.913 343.831 373.378 345.788C374.842 347.745 377.061 349.007 379.101 350.379C380.745 351.354 382.146 352.69 383.199 354.285C383.324 354.505 383.426 354.738 383.504 354.979H395.907C398.692 353.567 401.272 351.783 403.578 349.676Z" fill="#F5F5F5"/>
<path d="M274.528 154.202C274.297 154.201 274.07 154.142 273.868 154.031C273.666 153.92 273.494 153.761 273.369 153.567C273.244 153.373 273.169 153.151 273.152 152.921C273.134 152.691 273.174 152.461 273.268 152.25L274.863 148.688C272.665 146.734 271.264 144.036 270.931 141.113C270.597 138.189 271.354 135.245 273.056 132.845C274.758 130.446 277.285 128.759 280.154 128.109C283.022 127.459 286.029 127.892 288.598 129.324C291.168 130.755 293.118 133.086 294.076 135.868C295.034 138.65 294.932 141.688 293.789 144.399C292.646 147.111 290.543 149.304 287.883 150.56C285.223 151.815 282.194 152.044 279.376 151.203L275.304 153.961C275.075 154.117 274.805 154.201 274.528 154.202ZM282.761 129.573C280.64 129.572 278.571 130.231 276.841 131.459C275.11 132.687 273.805 134.423 273.105 136.427C272.405 138.431 272.346 140.603 272.935 142.642C273.524 144.681 274.733 146.486 276.393 147.807L276.896 148.209L275.179 152.042L279.119 149.373L279.508 149.504C280.913 149.976 282.404 150.137 283.878 149.975C285.352 149.814 286.773 149.333 288.043 148.568C289.312 147.802 290.4 146.769 291.232 145.541C292.063 144.313 292.617 142.918 292.856 141.454C293.095 139.99 293.013 138.492 292.616 137.062C292.218 135.633 291.515 134.308 290.555 133.177C289.595 132.047 288.4 131.14 287.055 130.517C285.709 129.895 284.244 129.573 282.761 129.573Z" fill="#313335"/>
<path d="M282.761 140.914C283.677 140.914 284.42 140.171 284.42 139.254C284.42 138.338 283.677 137.595 282.761 137.595C281.845 137.595 281.102 138.338 281.102 139.254C281.102 140.171 281.845 140.914 282.761 140.914Z" fill="#313335"/>
<path d="M278.062 140.914C278.978 140.914 279.72 140.171 279.72 139.254C279.72 138.338 278.978 137.595 278.062 137.595C277.145 137.595 276.403 138.338 276.403 139.254C276.403 140.171 277.145 140.914 278.062 140.914Z" fill="#313335"/>
<path d="M287.46 140.914C288.376 140.914 289.119 140.171 289.119 139.254C289.119 138.338 288.376 137.595 287.46 137.595C286.544 137.595 285.802 138.338 285.802 139.254C285.802 140.171 286.544 140.914 287.46 140.914Z" fill="#313335"/>
</g>
<defs>
<clipPath id="clip0">
<rect width="410" height="356" fill="white" transform="translate(0.987305)"/>
</clipPath>
</defs>
</svg>
