<svg  viewBox="0 0 410 288" fill="none" xmlns="http://www.w3.org/2000/svg">
<g clip-path="url(#clip0)">
<path d="M334.877 180.296H70.8127C69.0101 180.294 67.2819 179.577 66.0073 178.302C64.7327 177.028 64.0157 175.3 64.0137 173.497V10.6699C64.0151 9.34926 64.5404 8.08318 65.4742 7.14935C66.408 6.21553 67.674 5.69024 68.9946 5.68872H336.609C337.952 5.69025 339.24 6.22461 340.19 7.17458C341.14 8.12455 341.674 9.41254 341.676 10.756V173.497C341.674 175.3 340.957 177.028 339.682 178.302C338.408 179.577 336.679 180.294 334.877 180.296Z" fill="#F5F5F5"/>
<path d="M325.244 170.668H79.1431C75.5355 170.668 72.6006 167.919 72.6006 164.541V22.7489C72.6006 20.2436 74.7754 18.2052 77.4487 18.2052H326.858C329.576 18.2052 331.786 20.2772 331.786 22.8238V164.541C331.786 167.919 328.851 170.668 325.244 170.668Z" fill="white"/>
<path d="M341.581 10.281H63.9182V6.81952C63.9208 5.01094 64.6407 3.27725 65.92 1.99878C67.1992 0.720321 68.9334 0.00149419 70.742 0H334.757C336.566 0.00148548 338.3 0.72031 339.579 1.99878C340.859 3.27724 341.578 5.01094 341.581 6.81952V10.281Z" fill="#CCC9CF"/>
<path d="M76.3192 6.9158C77.294 6.9158 78.0843 6.12557 78.0843 5.15077C78.0843 4.17597 77.294 3.38574 76.3192 3.38574C75.3444 3.38574 74.5542 4.17597 74.5542 5.15077C74.5542 6.12557 75.3444 6.9158 76.3192 6.9158Z" fill="white"/>
<path d="M83.0189 6.9158C83.9937 6.9158 84.784 6.12557 84.784 5.15077C84.784 4.17597 83.9937 3.38574 83.0189 3.38574C82.0441 3.38574 81.2539 4.17597 81.2539 5.15077C81.2539 6.12557 82.0441 6.9158 83.0189 6.9158Z" fill="white"/>
<path d="M89.7186 6.9158C90.6934 6.9158 91.4837 6.12557 91.4837 5.15077C91.4837 4.17597 90.6934 3.38574 89.7186 3.38574C88.7438 3.38574 87.9536 4.17597 87.9536 5.15077C87.9536 6.12557 88.7438 6.9158 89.7186 6.9158Z" fill="white"/>
<path d="M298.155 146.887H107.438C105.526 146.885 103.693 146.124 102.342 144.772C100.99 143.42 100.229 141.588 100.227 139.676V47.7229C100.229 46.2931 100.797 44.9222 101.808 43.9112C102.819 42.9001 104.19 42.3314 105.62 42.3297H299.887C301.34 42.3314 302.733 42.9092 303.76 43.9364C304.787 44.9636 305.365 46.3563 305.367 47.809V139.676C305.364 141.588 304.604 143.42 303.252 144.772C301.9 146.124 300.067 146.885 298.155 146.887ZM105.62 43.1538C104.409 43.1552 103.247 43.6371 102.391 44.4936C101.534 45.3502 101.053 46.5116 101.051 47.7229V139.676C101.053 141.369 101.727 142.993 102.924 144.19C104.121 145.387 105.745 146.061 107.438 146.063H298.155C299.849 146.061 301.472 145.387 302.67 144.19C303.867 142.993 304.541 141.369 304.542 139.676V47.809C304.541 46.5748 304.05 45.3916 303.177 44.5189C302.305 43.6461 301.122 43.1552 299.887 43.1538H105.62Z" fill="#CCC9CF"/>
<path d="M114.031 139.676H291.563C293.311 139.676 294.988 138.981 296.225 137.745C297.461 136.508 298.156 134.831 298.156 133.083V56.2138C298.156 54.4653 297.461 52.7883 296.225 51.5519C294.988 50.3155 293.311 49.6208 291.563 49.6208H114.031C112.283 49.6208 110.606 50.3155 109.369 51.5519C108.133 52.7883 107.438 54.4653 107.438 56.2138V133.083C107.438 134.831 108.133 136.508 109.369 137.745C110.606 138.981 112.283 139.676 114.031 139.676Z" fill="#F5F5F5"/>
<path d="M134.189 71.985C136.237 71.985 137.897 70.3246 137.897 68.2764C137.897 66.2282 136.237 64.5679 134.189 64.5679C132.141 64.5679 130.48 66.2282 130.48 68.2764C130.48 70.3246 132.141 71.985 134.189 71.985Z" fill="#CCC9CF"/>
<path d="M134.189 85.995C136.237 85.995 137.897 84.3346 137.897 82.2864C137.897 80.2382 136.237 78.5779 134.189 78.5779C132.141 78.5779 130.48 80.2382 130.48 82.2864C130.48 84.3346 132.141 85.995 134.189 85.995Z" fill="#CCC9CF"/>
<path d="M134.189 100.005C136.237 100.005 137.897 98.3447 137.897 96.2966C137.897 94.2484 136.237 92.588 134.189 92.588C132.141 92.588 130.48 94.2484 130.48 96.2966C130.48 98.3447 132.141 100.005 134.189 100.005Z" fill="#CCC9CF"/>
<path d="M134.189 114.015C136.237 114.015 137.897 112.355 137.897 110.307C137.897 108.258 136.237 106.598 134.189 106.598C132.141 106.598 130.48 108.258 130.48 110.307C130.48 112.355 132.141 114.015 134.189 114.015Z" fill="#CCC9CF"/>
<path d="M274.701 68.6885H152.732C152.622 68.6885 152.518 68.6451 152.44 68.5678C152.363 68.4905 152.32 68.3857 152.32 68.2764C152.32 68.1672 152.363 68.0624 152.44 67.9851C152.518 67.9078 152.622 67.8644 152.732 67.8644H274.701C274.811 67.8644 274.916 67.9078 274.993 67.9851C275.07 68.0624 275.114 68.1672 275.114 68.2764C275.114 68.3857 275.07 68.4905 274.993 68.5678C274.916 68.6451 274.811 68.6885 274.701 68.6885Z" fill="#CCC9CF"/>
<path d="M274.701 82.6985H152.732C152.622 82.6985 152.518 82.6551 152.44 82.5778C152.363 82.5006 152.32 82.3957 152.32 82.2865C152.32 82.1772 152.363 82.0724 152.44 81.9951C152.518 81.9178 152.622 81.8744 152.732 81.8744H274.701C274.811 81.8744 274.916 81.9178 274.993 81.9951C275.07 82.0724 275.114 82.1772 275.114 82.2865C275.114 82.3957 275.07 82.5006 274.993 82.5778C274.916 82.6551 274.811 82.6985 274.701 82.6985Z" fill="#CCC9CF"/>
<path d="M274.701 96.7085H152.732C152.622 96.7085 152.518 96.6651 152.44 96.5878C152.363 96.5106 152.32 96.4058 152.32 96.2965C152.32 96.1872 152.363 96.0824 152.44 96.0051C152.518 95.9278 152.622 95.8844 152.732 95.8844H274.701C274.811 95.8844 274.916 95.9278 274.993 96.0051C275.07 96.0824 275.114 96.1872 275.114 96.2965C275.114 96.4058 275.07 96.5106 274.993 96.5878C274.916 96.6651 274.811 96.7085 274.701 96.7085Z" fill="#CCC9CF"/>
<path d="M274.701 110.719H152.732C152.622 110.719 152.518 110.675 152.44 110.598C152.363 110.521 152.32 110.416 152.32 110.307C152.32 110.197 152.363 110.093 152.44 110.015C152.518 109.938 152.622 109.895 152.732 109.895H274.701C274.811 109.895 274.916 109.938 274.993 110.015C275.07 110.093 275.114 110.197 275.114 110.307C275.114 110.416 275.07 110.521 274.993 110.598C274.916 110.675 274.811 110.719 274.701 110.719Z" fill="#CCC9CF"/>
<path d="M175.807 124.729H163.857C163.311 124.728 162.787 124.511 162.401 124.125C162.015 123.738 161.798 123.215 161.797 122.668V111.543C161.798 110.996 162.015 110.473 162.401 110.087C162.787 109.7 163.311 109.483 163.857 109.482H175.807C176.353 109.483 176.877 109.7 177.263 110.087C177.649 110.473 177.867 110.996 177.867 111.543V122.668C177.867 123.215 177.649 123.738 177.263 124.125C176.877 124.511 176.353 124.728 175.807 124.729Z" fill="#2FA83E"/>
<path d="M202.591 124.729H190.641C190.095 124.728 189.571 124.511 189.185 124.125C188.799 123.738 188.582 123.215 188.581 122.668V97.5327C188.582 96.9865 188.799 96.4628 189.185 96.0766C189.571 95.6903 190.095 95.473 190.641 95.4724H202.591C203.137 95.473 203.661 95.6903 204.047 96.0766C204.433 96.4628 204.651 96.9865 204.651 97.5327V122.668C204.651 123.215 204.433 123.738 204.047 124.125C203.661 124.511 203.137 124.728 202.591 124.729Z" fill="#2FA83E"/>
<path d="M229.787 124.729H217.837C217.291 124.728 216.767 124.511 216.381 124.125C215.995 123.738 215.778 123.215 215.777 122.668V83.5227C215.778 82.9765 215.995 82.4528 216.381 82.0665C216.767 81.6803 217.291 81.463 217.837 81.4624H229.787C230.333 81.463 230.857 81.6803 231.243 82.0665C231.63 82.4528 231.847 82.9765 231.847 83.5227V122.668C231.847 123.215 231.63 123.738 231.243 124.125C230.857 124.511 230.333 124.728 229.787 124.729Z" fill="#2FA83E"/>
<path d="M257.807 124.729H245.857C245.311 124.728 244.787 124.511 244.401 124.125C244.015 123.738 243.798 123.215 243.797 122.668V69.9247C243.798 69.3784 244.015 68.8548 244.401 68.4685C244.787 68.0823 245.311 67.865 245.857 67.8644H257.807C258.353 67.865 258.877 68.0823 259.263 68.4685C259.65 68.8548 259.867 69.3784 259.867 69.9247V122.668C259.867 123.215 259.65 123.738 259.263 124.125C258.877 124.511 258.353 124.728 257.807 124.729Z" fill="#2FA83E"/>
<path d="M274.701 124.729H152.732C152.622 124.729 152.518 124.685 152.44 124.608C152.363 124.531 152.32 124.426 152.32 124.317C152.32 124.207 152.363 124.103 152.44 124.025C152.518 123.948 152.622 123.905 152.732 123.905H274.701C274.811 123.905 274.916 123.948 274.993 124.025C275.07 124.103 275.114 124.207 275.114 124.317C275.114 124.426 275.07 124.531 274.993 124.608C274.916 124.685 274.811 124.729 274.701 124.729Z" fill="#313335"/>
<path d="M328.289 201.598C328.623 201.092 329.064 200.666 329.58 200.349C330.096 200.033 330.676 199.833 331.278 199.765C331.88 199.696 332.489 199.76 333.064 199.953C333.638 200.146 334.163 200.462 334.602 200.879L347.687 194.126L346.873 201.735L334.572 206.981C333.822 207.672 332.844 208.064 331.825 208.082C330.805 208.1 329.814 207.744 329.039 207.08C328.265 206.417 327.761 205.492 327.622 204.481C327.484 203.471 327.721 202.445 328.289 201.598Z" fill="#FFCAD0"/>
<path d="M339.548 204.435C339.251 204.202 339.032 203.884 338.92 203.524L337.879 200.162C337.767 199.797 337.77 199.408 337.887 199.045C338.004 198.682 338.229 198.364 338.533 198.134L349.138 190.123L360.625 168.815C361.106 168.195 361.704 167.676 362.386 167.288C363.067 166.9 363.819 166.649 364.597 166.551C365.375 166.453 366.165 166.51 366.922 166.717C367.679 166.924 368.387 167.279 369.006 167.76C369.626 168.241 370.145 168.839 370.533 169.521C370.921 170.203 371.172 170.954 371.27 171.732C371.368 172.511 371.311 173.301 371.104 174.057C370.896 174.814 370.542 175.522 370.061 176.142L363.526 189.934C361.543 194.12 358.108 197.443 353.858 199.286L341.429 204.677C341.19 204.78 340.932 204.832 340.671 204.83C340.411 204.827 340.154 204.769 339.917 204.661C339.786 204.6 339.661 204.525 339.548 204.435Z" fill="#313335"/>
<path d="M370.35 159.922C375.939 159.922 380.47 155.39 380.47 149.801C380.47 144.211 375.939 139.68 370.35 139.68C364.76 139.68 360.229 144.211 360.229 149.801C360.229 155.39 364.76 159.922 370.35 159.922Z" fill="#FFCAD0"/>
<path d="M366.244 282.565L361.193 282.565L358.79 263.079L366.246 263.08L366.244 282.565Z" fill="#FFCAD0"/>
<path d="M357.584 281.121H367.327V287.255H351.45C351.45 286.45 351.609 285.652 351.917 284.908C352.225 284.164 352.677 283.487 353.247 282.918C353.816 282.348 354.492 281.896 355.237 281.588C355.981 281.28 356.779 281.121 357.584 281.121Z" fill="#313335"/>
<path d="M382.726 282.566L377.675 282.565L375.272 263.079L382.728 263.08L382.726 282.566Z" fill="#FFCAD0"/>
<path d="M374.067 281.122H383.809V287.256H367.932C367.932 286.451 368.091 285.653 368.399 284.909C368.708 284.164 369.159 283.488 369.729 282.919C370.299 282.349 370.975 281.897 371.719 281.589C372.463 281.281 373.261 281.122 374.067 281.122Z" fill="#313335"/>
<path d="M383.096 277.621L377.176 277.621C376.768 277.62 376.372 277.486 376.049 277.238C375.725 276.99 375.492 276.643 375.386 276.249L366.864 244.644C366.851 244.594 366.82 244.552 366.777 244.524C366.734 244.497 366.683 244.486 366.632 244.494C366.582 244.502 366.536 244.529 366.505 244.569C366.473 244.609 366.457 244.659 366.46 244.71L368.181 274.684C368.196 274.949 368.154 275.214 368.058 275.462C367.962 275.709 367.814 275.933 367.624 276.118C367.434 276.304 367.206 276.446 366.956 276.535C366.706 276.625 366.44 276.66 366.176 276.638L359.522 276.083C359.096 276.047 358.695 275.864 358.387 275.567C358.08 275.269 357.885 274.875 357.834 274.45L351.772 211.51L354.118 212.917L376.092 209.186L384.934 275.522C384.969 275.784 384.947 276.05 384.871 276.303C384.795 276.556 384.665 276.79 384.491 276.989C384.317 277.187 384.102 277.347 383.862 277.456C383.621 277.565 383.36 277.621 383.096 277.621H383.096Z" fill="#313335"/>
<path d="M359.122 218.153C356.697 218.133 354.322 217.465 352.244 216.217C351.923 216.027 351.668 215.745 351.511 215.408C351.354 215.07 351.302 214.693 351.363 214.326C352.136 209.593 356.178 185.314 359.855 172.078C361.353 166.687 364.664 163.783 369.698 163.448C377.061 162.965 383.605 168.725 384.286 176.304C385.489 189.675 380.605 208.671 378.45 216.218C378.366 216.51 378.213 216.776 378.002 216.995C377.792 217.213 377.531 217.376 377.242 217.47C376.954 217.564 376.647 217.585 376.348 217.533C376.05 217.48 375.769 217.355 375.53 217.169L371.136 213.751C370.866 213.545 370.532 213.439 370.192 213.454C369.852 213.468 369.528 213.601 369.275 213.829C365.573 217.132 362.055 218.153 359.122 218.153Z" fill="#313335"/>
<path opacity="0.2" d="M373.651 182.847L377.359 198.506L372.001 211.691L375.711 198.918L373.651 182.847Z" fill="#313335"/>
<path d="M376.124 158.124C377.025 158.14 377.919 157.978 378.757 157.647C379.125 157.505 379.508 157.389 379.875 157.247C383.123 155.992 385.263 152.533 385.34 149.053C385.416 145.572 383.614 142.193 380.937 139.966C378.261 137.74 374.794 136.597 371.322 136.332C367.582 136.047 363.372 136.995 361.282 140.109C360.726 140.938 360.336 141.944 360.666 142.945C360.765 143.247 360.941 143.518 361.177 143.73C362.11 144.561 363.041 143.937 363.992 143.881C365.3 143.806 366.474 144.864 366.896 146.104C367.318 147.344 367.132 148.709 366.791 149.974C366.532 150.735 366.368 151.525 366.304 152.326C366.277 152.728 366.352 153.131 366.524 153.495C366.695 153.86 366.957 154.174 367.284 154.409C368.101 154.903 369.174 154.617 369.992 154.124C370.809 153.631 371.516 152.946 372.399 152.583C373.282 152.22 374.468 152.301 374.982 153.105C375.146 153.398 375.256 153.717 375.309 154.048C375.77 156.148 375.664 156.024 376.124 158.124Z" fill="#313335"/>
<path d="M360.438 268.429L297.065 246.359C295.977 245.979 295.085 245.183 294.584 244.146C294.082 243.109 294.013 241.915 294.391 240.827L310.859 193.539C311.137 192.743 311.72 192.089 312.48 191.722C313.24 191.354 314.114 191.303 314.912 191.58L380.427 214.396C381.238 214.68 381.903 215.273 382.276 216.046C382.65 216.819 382.702 217.708 382.42 218.519L365.97 265.755C365.59 266.842 364.794 267.735 363.757 268.236C362.72 268.737 361.526 268.807 360.438 268.429Z" fill="#CCC9CF"/>
<path d="M302.472 243.641L357.888 262.94C358.943 263.308 360.101 263.241 361.107 262.755C362.113 262.268 362.885 261.402 363.252 260.347L376.55 222.163C376.918 221.108 376.851 219.949 376.365 218.943C375.878 217.937 375.012 217.166 373.957 216.798L318.542 197.499C317.486 197.132 316.328 197.199 315.322 197.685C314.316 198.171 313.545 199.037 313.177 200.092L299.879 238.277C299.697 238.799 299.62 239.353 299.652 239.905C299.684 240.457 299.824 240.998 300.065 241.496C300.306 241.994 300.642 242.44 301.055 242.808C301.468 243.176 301.95 243.459 302.472 243.641Z" fill="white"/>
<path d="M316.388 216.813L313.644 215.858C313.495 215.806 313.373 215.697 313.304 215.555C313.236 215.413 313.226 215.25 313.278 215.101L314.234 212.356C314.286 212.208 314.395 212.086 314.537 212.017C314.678 211.948 314.842 211.939 314.991 211.991L317.735 212.946C317.884 212.998 318.006 213.107 318.075 213.249C318.143 213.391 318.153 213.554 318.101 213.703L317.145 216.448C317.093 216.596 316.984 216.718 316.842 216.787C316.701 216.856 316.537 216.865 316.388 216.813Z" fill="#2FA83E"/>
<path d="M313.912 223.924L311.167 222.968C311.019 222.916 310.896 222.807 310.828 222.666C310.759 222.524 310.75 222.36 310.801 222.211L311.757 219.467C311.809 219.318 311.918 219.196 312.06 219.128C312.202 219.059 312.365 219.049 312.514 219.101L315.258 220.057C315.407 220.109 315.529 220.218 315.598 220.36C315.666 220.502 315.676 220.665 315.624 220.814L314.669 223.558C314.617 223.707 314.508 223.829 314.366 223.898C314.224 223.966 314.061 223.976 313.912 223.924Z" fill="#313335"/>
<path d="M311.435 231.035L308.691 230.079C308.542 230.027 308.42 229.918 308.352 229.776C308.283 229.634 308.273 229.471 308.325 229.322L309.281 226.578C309.333 226.429 309.442 226.307 309.584 226.238C309.726 226.17 309.889 226.16 310.038 226.212L312.782 227.168C312.931 227.22 313.053 227.328 313.122 227.47C313.19 227.612 313.2 227.775 313.148 227.924L312.192 230.669C312.14 230.818 312.031 230.94 311.89 231.008C311.748 231.077 311.584 231.086 311.435 231.035Z" fill="#CCC9CF"/>
<path d="M334.83 221.697L321.606 217.092C321.533 217.067 321.464 217.027 321.406 216.975C321.347 216.923 321.3 216.86 321.266 216.79C321.232 216.719 321.212 216.643 321.207 216.565C321.203 216.487 321.213 216.409 321.239 216.335C321.265 216.261 321.305 216.193 321.357 216.134C321.409 216.076 321.472 216.029 321.542 215.995C321.613 215.961 321.689 215.941 321.767 215.937C321.846 215.932 321.924 215.943 321.997 215.969L335.221 220.574C335.295 220.6 335.363 220.64 335.421 220.692C335.48 220.744 335.527 220.807 335.561 220.877C335.596 220.947 335.616 221.024 335.62 221.102C335.625 221.18 335.614 221.258 335.588 221.332C335.562 221.406 335.522 221.474 335.47 221.532C335.418 221.59 335.355 221.638 335.285 221.672C335.214 221.706 335.138 221.726 335.06 221.73C334.982 221.734 334.903 221.723 334.83 221.697Z" fill="#CCC9CF"/>
<path d="M332.353 228.808L319.13 224.203C318.981 224.151 318.859 224.042 318.79 223.9C318.722 223.758 318.712 223.595 318.764 223.446C318.816 223.297 318.925 223.175 319.067 223.106C319.209 223.038 319.372 223.028 319.521 223.08L332.744 227.685C332.818 227.711 332.886 227.751 332.945 227.802C333.003 227.854 333.051 227.917 333.085 227.988C333.119 228.058 333.139 228.134 333.143 228.212C333.148 228.29 333.137 228.369 333.111 228.442C333.086 228.516 333.046 228.584 332.994 228.643C332.942 228.701 332.879 228.748 332.808 228.782C332.738 228.816 332.661 228.836 332.583 228.84C332.505 228.845 332.427 228.834 332.353 228.808Z" fill="#CCC9CF"/>
<path d="M329.877 235.918L316.654 231.313C316.505 231.261 316.383 231.153 316.314 231.011C316.246 230.869 316.236 230.705 316.288 230.556C316.34 230.408 316.449 230.285 316.591 230.217C316.733 230.148 316.896 230.139 317.045 230.191L330.268 234.796C330.417 234.847 330.539 234.956 330.608 235.098C330.676 235.24 330.686 235.404 330.634 235.552C330.582 235.701 330.473 235.824 330.331 235.892C330.189 235.961 330.026 235.97 329.877 235.918Z" fill="#CCC9CF"/>
<path d="M365.066 239.771C365.162 239.54 365.253 239.305 365.337 239.065C366.423 235.945 366.226 232.52 364.788 229.545C363.35 226.569 360.788 224.287 357.668 223.201L353.321 235.681L365.066 239.771Z" fill="#2FA83E"/>
<path d="M352.057 236.44L356.404 223.96C354.107 223.16 351.626 223.049 349.267 223.643C346.908 224.236 344.775 225.506 343.129 227.297C341.484 229.088 340.399 231.322 340.007 233.723C339.616 236.123 339.936 238.586 340.928 240.807C341.919 243.028 343.539 244.91 345.588 246.221C347.636 247.532 350.024 248.215 352.456 248.186C354.888 248.156 357.258 247.416 359.274 246.055C361.291 244.695 362.865 242.774 363.802 240.53L352.057 236.44Z" fill="#313335"/>
<path d="M367.617 218.537C367.568 217.934 367.652 217.326 367.863 216.759C368.074 216.191 368.407 215.676 368.838 215.251C369.269 214.825 369.789 214.5 370.359 214.297C370.93 214.094 371.539 214.019 372.142 214.076L378.27 200.687L382.325 207.176L375.884 218.896C375.72 219.902 375.192 220.814 374.401 221.458C373.61 222.101 372.61 222.432 371.591 222.388C370.572 222.344 369.605 221.928 368.873 221.218C368.14 220.508 367.694 219.554 367.617 218.537Z" fill="#FFCAD0"/>
<path d="M378.228 213.822C377.851 213.822 377.482 213.707 377.172 213.492L374.278 211.489C373.965 211.272 373.727 210.963 373.595 210.606C373.463 210.248 373.444 209.859 373.541 209.49L376.943 196.642L372.831 172.786C372.826 172.001 372.976 171.223 373.272 170.496C373.568 169.769 374.005 169.108 374.557 168.55C375.109 167.991 375.766 167.548 376.49 167.243C377.213 166.939 377.99 166.781 378.775 166.777C379.56 166.773 380.338 166.924 381.065 167.221C381.792 167.518 382.452 167.956 383.01 168.509C383.567 169.061 384.01 169.719 384.314 170.443C384.617 171.167 384.775 171.944 384.777 172.729L388.147 187.614C389.17 192.131 388.518 196.867 386.311 200.939L379.858 212.851C379.733 213.08 379.562 213.28 379.356 213.439C379.149 213.597 378.911 213.711 378.658 213.771C378.517 213.805 378.373 213.822 378.228 213.822Z" fill="#313335"/>
<path d="M409.588 287.487H331.296C331.187 287.487 331.082 287.443 331.005 287.366C330.928 287.289 330.884 287.184 330.884 287.075C330.884 286.965 330.928 286.861 331.005 286.783C331.082 286.706 331.187 286.663 331.296 286.663H409.588C409.697 286.663 409.802 286.706 409.879 286.783C409.956 286.861 410 286.965 410 287.075C410 287.184 409.956 287.289 409.879 287.366C409.802 287.443 409.697 287.487 409.588 287.487Z" fill="#CCC9CF"/>
<path d="M202.132 282.36L207.184 282.359L209.587 262.874H202.132L202.132 282.36Z" fill="#FFCAD0"/>
<path d="M200.844 280.71L210.793 280.71H210.793C211.626 280.71 212.45 280.874 213.219 281.193C213.989 281.511 214.688 281.978 215.276 282.567C215.865 283.156 216.332 283.855 216.651 284.624C216.969 285.393 217.133 286.218 217.133 287.05V287.256L200.844 287.257L200.844 280.71Z" fill="#313335"/>
<path d="M181.941 282.36L186.993 282.359L189.396 262.874H181.941L181.941 282.36Z" fill="#FFCAD0"/>
<path d="M180.653 280.71L190.602 280.71H190.602C191.435 280.71 192.259 280.874 193.028 281.193C193.798 281.511 194.497 281.978 195.085 282.567C195.674 283.156 196.141 283.855 196.46 284.624C196.778 285.393 196.942 286.218 196.942 287.05V287.256L180.653 287.257L180.653 280.71Z" fill="#313335"/>
<path d="M203.141 147.459C208.73 147.459 213.261 142.928 213.261 137.338C213.261 131.749 208.73 127.218 203.141 127.218C197.551 127.218 193.02 131.749 193.02 137.338C193.02 142.928 197.551 147.459 203.141 147.459Z" fill="#FFCAD0"/>
<path d="M209.947 278.154H200.572C200.327 278.154 200.084 278.105 199.857 278.011C199.631 277.916 199.426 277.778 199.253 277.603C199.081 277.429 198.945 277.221 198.853 276.994C198.761 276.766 198.715 276.523 198.718 276.277L199.263 231.762C199.265 231.604 199.206 231.451 199.099 231.335C198.992 231.219 198.844 231.148 198.686 231.138C198.528 231.127 198.372 231.177 198.251 231.278C198.129 231.379 198.05 231.523 198.031 231.68L192.575 276.524C192.52 276.974 192.303 277.387 191.964 277.688C191.625 277.988 191.187 278.154 190.735 278.154H181.27C181.014 278.154 180.761 278.101 180.527 277.999C180.293 277.897 180.082 277.747 179.908 277.559C179.735 277.371 179.602 277.15 179.518 276.908C179.434 276.667 179.401 276.41 179.421 276.155L185.671 196.185L185.841 196.166L215.768 192.934L211.799 276.388C211.777 276.864 211.572 277.314 211.227 277.643C210.882 277.972 210.424 278.155 209.947 278.154Z" fill="#313335"/>
<path d="M186.035 201.094C185.554 201.093 185.093 200.905 184.748 200.57C184.403 200.235 184.202 199.779 184.187 199.298C184.024 194.242 183.744 176.745 186.999 163.9C187.887 160.391 189.88 157.261 192.685 154.973C195.489 152.684 198.956 151.359 202.571 151.193C206.13 150.998 209.66 151.93 212.66 153.854C215.66 155.779 217.977 158.6 219.284 161.916C224.754 175.804 229.923 192.922 223.479 195.607C215.034 199.125 192.771 200.694 186.149 201.091C186.111 201.093 186.073 201.094 186.035 201.094Z" fill="#313335"/>
<path d="M224.716 127.109C224.875 127.273 225.046 127.424 225.229 127.56L224.167 147.968L219.748 150.23L222.29 157.345L230.503 154.101C231.166 153.838 231.726 153.368 232.1 152.76C232.473 152.152 232.639 151.44 232.573 150.73L230.422 127.58C231.126 127.055 231.653 126.328 231.934 125.496C232.215 124.663 232.235 123.765 231.993 122.921C231.751 122.077 231.258 121.326 230.578 120.769C229.899 120.212 229.067 119.875 228.191 119.803C227.316 119.731 226.439 119.927 225.678 120.365C224.917 120.803 224.307 121.462 223.929 122.256C223.552 123.049 223.425 123.938 223.566 124.805C223.706 125.672 224.107 126.476 224.716 127.109Z" fill="#FFCAD0"/>
<path d="M224.251 148.727L227.359 157.561C227.448 157.813 227.481 158.08 227.457 158.346C227.432 158.611 227.351 158.868 227.219 159.099C227.086 159.33 226.905 159.53 226.689 159.685C226.472 159.84 226.224 159.947 225.963 159.997L216.796 161.772C215.508 162.218 214.095 162.134 212.868 161.539C211.641 160.945 210.7 159.888 210.251 158.6C209.803 157.313 209.883 155.9 210.474 154.672C211.065 153.443 212.12 152.499 213.406 152.047L221.636 147.703C221.872 147.578 222.132 147.506 222.398 147.491C222.664 147.477 222.93 147.519 223.178 147.616C223.426 147.714 223.65 147.863 223.835 148.055C224.021 148.247 224.162 148.476 224.251 148.727V148.727Z" fill="#313335"/>
<path d="M180.878 127.109C180.719 127.273 180.547 127.424 180.365 127.56L181.427 147.968L185.846 150.23L183.303 157.345L175.091 154.101C174.428 153.838 173.867 153.368 173.494 152.76C173.12 152.152 172.954 151.44 173.02 150.73L175.172 127.58C174.468 127.055 173.94 126.328 173.66 125.496C173.379 124.663 173.358 123.765 173.601 122.921C173.843 122.077 174.336 121.326 175.015 120.769C175.695 120.212 176.527 119.875 177.403 119.803C178.278 119.731 179.155 119.927 179.916 120.365C180.677 120.803 181.287 121.462 181.664 122.256C182.042 123.049 182.169 123.938 182.028 124.805C181.888 125.672 181.487 126.476 180.878 127.109H180.878Z" fill="#FFCAD0"/>
<path d="M182.416 147.616C182.664 147.519 182.93 147.476 183.196 147.491C183.462 147.506 183.722 147.578 183.957 147.703L192.188 152.047C193.474 152.499 194.528 153.443 195.12 154.672C195.711 155.9 195.791 157.313 195.342 158.6C194.894 159.888 193.953 160.945 192.726 161.539C191.499 162.134 190.086 162.218 188.797 161.772L179.631 159.997C179.369 159.947 179.122 159.84 178.905 159.685C178.688 159.53 178.508 159.33 178.375 159.099C178.242 158.868 178.161 158.611 178.137 158.346C178.113 158.08 178.146 157.813 178.235 157.561L181.343 148.727C181.432 148.476 181.573 148.246 181.758 148.055C181.943 147.863 182.168 147.714 182.416 147.616Z" fill="#313335"/>
<path d="M207.072 139.064C207.019 137.773 207.343 136.494 208.004 135.384C208.666 134.274 209.636 133.381 210.797 132.814C213.873 131.226 215.806 127.838 214.959 124.745C213.875 120.785 208.486 118.217 204.12 119.58C202.938 119.999 201.798 120.529 200.716 121.162L197.863 122.691C196.644 123.301 195.47 123.994 194.347 124.767C192.665 126.006 191.346 127.674 190.529 129.597C189.712 131.52 189.427 133.628 189.703 135.699C190.264 139.724 192.9 143.415 196.509 145.943C197.889 146.974 199.483 147.683 201.173 148.016C202.902 148.301 204.828 147.977 206.093 146.901C208.069 145.22 207.865 142.406 207.226 140.054C207.141 139.73 207.09 139.398 207.072 139.064Z" fill="#313335"/>
<path d="M241.467 287.487H163.176C163.067 287.487 162.962 287.443 162.885 287.366C162.807 287.289 162.764 287.184 162.764 287.075C162.764 286.965 162.807 286.861 162.885 286.783C162.962 286.706 163.067 286.663 163.176 286.663H241.467C241.577 286.663 241.682 286.706 241.759 286.783C241.836 286.861 241.879 286.965 241.879 287.075C241.879 287.184 241.836 287.289 241.759 287.366C241.682 287.443 241.577 287.487 241.467 287.487Z" fill="#CCC9CF"/>
<path d="M113.691 212.316L49.0897 238.818C47.9802 239.272 46.7361 239.267 45.6303 238.804C44.5244 238.342 43.6472 237.46 43.191 236.351L23.4154 188.147C23.083 187.334 23.0866 186.423 23.4254 185.613C23.7642 184.803 24.4105 184.16 25.2226 183.826L92.0081 156.427C92.835 156.089 93.7622 156.093 94.5864 156.437C95.4105 156.782 96.0643 157.44 96.4043 158.266L116.158 206.417C116.612 207.526 116.607 208.77 116.144 209.876C115.682 210.982 114.8 211.859 113.691 212.316Z" fill="#CCC9CF"/>
<path d="M51.4297 232.971L107.919 209.797C108.995 209.355 109.851 208.505 110.3 207.432C110.749 206.359 110.753 205.152 110.311 204.077L94.3428 165.152C94.1243 164.62 93.803 164.135 93.3973 163.727C92.9915 163.318 92.5093 162.994 91.9782 162.772C91.447 162.55 90.8774 162.434 90.3016 162.432C89.7259 162.43 89.1555 162.542 88.6228 162.76L32.1332 185.935C31.6005 186.153 31.1161 186.475 30.7077 186.88C30.2992 187.286 29.9746 187.768 29.7525 188.3C29.5304 188.831 29.4151 189.4 29.4131 189.976C29.4112 190.552 29.5226 191.122 29.7411 191.655L45.7098 230.579C45.9283 231.112 46.2496 231.596 46.6553 232.005C47.061 232.413 47.5432 232.738 48.0743 232.96C48.6055 233.182 49.1752 233.297 49.7509 233.299C50.3266 233.301 50.8971 233.19 51.4297 232.971Z" fill="white"/>
<path d="M94.0307 175.768L93.2002 176.108L93.257 176.247L94.0875 175.906L94.0307 175.768Z" fill="#CCC9CF"/>
<path d="M91.5794 176.935L89.9016 177.623L89.8448 177.485L91.5226 176.797L91.5794 176.935ZM88.2238 178.312L86.546 179L86.4892 178.862L88.167 178.173L88.2238 178.312ZM84.8681 179.688L83.1904 180.377L83.1336 180.238L84.8114 179.55L84.8681 179.688ZM81.5125 181.065L79.8347 181.753L79.7779 181.615L81.4557 180.927L81.5125 181.065ZM78.1569 182.442L76.4791 183.13L76.4223 182.991L78.1001 182.303L78.1569 182.442ZM74.8013 183.818L73.1235 184.507L73.0667 184.368L74.7445 183.68L74.8013 183.818ZM71.4457 185.195L69.7679 185.883L69.7111 185.745L71.3889 185.056L71.4457 185.195ZM68.0901 186.571L66.4123 187.26L66.3555 187.121L68.0333 186.433L68.0901 186.571ZM64.7344 187.948L63.0566 188.636L62.9999 188.498L64.6777 187.81L64.7344 187.948ZM61.3788 189.325L59.701 190.013L59.6442 189.875L61.322 189.186L61.3788 189.325ZM58.0232 190.701L56.3454 191.39L56.2886 191.251L57.9664 190.563L58.0232 190.701ZM54.6676 192.078L52.9898 192.766L52.933 192.628L54.6108 191.94L54.6676 192.078ZM51.312 193.455L49.6342 194.143L49.5774 194.005L51.2552 193.316L51.312 193.455ZM47.9563 194.831L46.2785 195.52L46.2217 195.381L47.8996 194.693L47.9563 194.831ZM44.6007 196.208L42.9229 196.896L42.8661 196.758L44.5439 196.069L44.6007 196.208ZM41.2451 197.585L39.5673 198.273L39.5105 198.134L41.1883 197.446L41.2451 197.585Z" fill="#CCC9CF"/>
<path d="M37.8325 198.823L37.002 199.163L37.0587 199.302L37.8893 198.961L37.8325 198.823Z" fill="#CCC9CF"/>
<path d="M72.0432 199.828L71.2126 200.168L71.2694 200.307L72.1 199.966L72.0432 199.828Z" fill="#CCC9CF"/>
<path d="M69.6167 200.985L67.9638 201.663L67.907 201.524L69.5599 200.846L69.6167 200.985ZM66.3109 202.341L64.6581 203.019L64.6013 202.88L66.2541 202.202L66.3109 202.341ZM63.0052 203.697L61.3523 204.375L61.2955 204.237L62.9484 203.559L63.0052 203.697ZM59.6994 205.053L58.0465 205.731L57.9897 205.593L59.6426 204.915L59.6994 205.053ZM56.3936 206.409L54.7407 207.087L54.6839 206.949L56.3368 206.271L56.3936 206.409ZM53.0878 207.766L51.4349 208.444L51.3781 208.305L53.031 207.627L53.0878 207.766ZM49.782 209.122L48.1292 209.8L48.0724 209.661L49.7253 208.983L49.782 209.122ZM46.4763 210.478L44.8234 211.156L44.7666 211.018L46.4195 210.34L46.4763 210.478Z" fill="#CCC9CF"/>
<path d="M43.1137 211.696L42.2832 212.036L42.34 212.175L43.1705 211.834L43.1137 211.696Z" fill="#CCC9CF"/>
<path d="M58.3469 212.562L57.5164 212.903L57.5731 213.041L58.4037 212.7L58.3469 212.562Z" fill="#CCC9CF"/>
<path d="M55.8724 213.739L54.1718 214.436L54.1151 214.298L55.8156 213.6L55.8724 213.739ZM52.4713 215.134L50.7707 215.832L50.7139 215.693L52.4145 214.996L52.4713 215.134ZM49.0701 216.529L47.3695 217.227L47.3127 217.089L49.0133 216.391L49.0701 216.529Z" fill="#CCC9CF"/>
<path d="M45.6123 217.786L44.7817 218.127L44.8385 218.265L45.669 217.925L45.6123 217.786Z" fill="#CCC9CF"/>
<path d="M62.6108 222.955L61.7803 223.296L61.8371 223.435L62.6676 223.094L62.6108 222.955Z" fill="#CCC9CF"/>
<path d="M60.1363 224.132L58.4358 224.83L58.379 224.691L60.0796 223.994L60.1363 224.132ZM56.7352 225.528L55.0346 226.225L54.9778 226.087L56.6784 225.389L56.7352 225.528ZM53.334 226.923L51.6334 227.62L51.5767 227.482L53.2772 226.784L53.334 226.923Z" fill="#CCC9CF"/>
<path d="M49.8762 228.18L49.0457 228.52L49.1024 228.659L49.933 228.318L49.8762 228.18Z" fill="#CCC9CF"/>
<path d="M53.8286 226.844L101.7 207.205C102.858 206.728 103.78 205.811 104.264 204.655C104.747 203.5 104.752 202.199 104.278 201.04L94.6059 177.463L94.5124 177.505L82.7649 205.594L74.052 201.951C73.8912 201.883 73.717 201.854 73.5428 201.865C73.3687 201.876 73.1995 201.927 73.0484 202.014C72.8215 202.15 72.646 202.358 72.549 202.604L66.3923 217.324L60.0219 214.661C59.8844 214.603 59.737 214.573 59.588 214.573C59.439 214.572 59.2913 214.601 59.1534 214.658C59.0156 214.714 58.8902 214.797 58.7845 214.902C58.6788 215.007 58.5948 215.132 58.5374 215.27C58.4966 215.37 54.5687 225.007 53.8286 226.844Z" fill="#2FA83E"/>
<path d="M53.681 227.066L53.543 227.008L58.469 215.229C58.5994 214.918 58.8478 214.672 59.1597 214.544C59.4717 214.416 59.8216 214.417 60.1328 214.546L66.3774 217.158L72.499 202.519C72.6295 202.209 72.8779 201.962 73.1898 201.834C73.5018 201.706 73.8517 201.707 74.1629 201.837L82.75 205.428L94.5579 177.192L94.6959 177.25L82.8302 205.624L74.1052 201.975C73.9693 201.918 73.8234 201.889 73.6761 201.888C73.5287 201.888 73.3827 201.916 73.2464 201.972C73.1101 202.028 72.9861 202.11 72.8815 202.214C72.777 202.318 72.6939 202.441 72.6371 202.577L66.4577 217.354L60.0751 214.684C59.8005 214.57 59.4918 214.569 59.2165 214.682C58.9413 214.795 58.7221 215.012 58.607 215.287L53.681 227.066Z" fill="#313335"/>
<path d="M58.3752 213.678C58.9536 213.678 59.4225 213.209 59.4225 212.631C59.4225 212.053 58.9536 211.584 58.3752 211.584C57.7968 211.584 57.3279 212.053 57.3279 212.631C57.3279 213.209 57.7968 213.678 58.3752 213.678Z" fill="#313335"/>
<path d="M72.0717 200.944C72.6501 200.944 73.119 200.475 73.119 199.897C73.119 199.318 72.6501 198.849 72.0717 198.849C71.4933 198.849 71.0244 199.318 71.0244 199.897C71.0244 200.475 71.4933 200.944 72.0717 200.944Z" fill="#313335"/>
<path d="M93.3986 176.847C93.977 176.847 94.4459 176.378 94.4459 175.8C94.4459 175.221 93.977 174.752 93.3986 174.752C92.8202 174.752 92.3513 175.221 92.3513 175.8C92.3513 176.378 92.8202 176.847 93.3986 176.847Z" fill="#313335"/>
<path d="M34.7782 211.443C35.3227 211.172 35.8011 210.785 36.1798 210.309C36.5585 209.833 36.8282 209.28 36.97 208.689C37.1119 208.097 37.1223 207.482 37.0006 206.886C36.8789 206.29 36.6281 205.729 36.2657 205.24L39.3762 174.828H32.6542L30.1822 204.524C29.4021 205.187 28.8923 206.113 28.7494 207.127C28.6066 208.141 28.8406 209.172 29.4071 210.025C29.9736 210.878 30.8333 211.493 31.8232 211.754C32.8132 212.016 33.8646 211.905 34.7782 211.443Z" fill="#FFCAD0"/>
<path d="M40.9503 158.045C46.2028 158.045 50.4607 153.787 50.4607 148.534C50.4607 143.282 46.2028 139.024 40.9503 139.024C35.6979 139.024 31.4399 143.282 31.4399 148.534C31.4399 153.787 35.6979 158.045 40.9503 158.045Z" fill="#FFCAD0"/>
<path d="M42.7409 192.539C42.3602 192.539 41.99 192.414 41.6872 192.183C41.3844 191.953 41.1657 191.629 41.0646 191.262C40.3026 188.494 38.3202 183.813 35.1726 177.349C34.4624 175.888 34.0691 174.294 34.0185 172.67C33.968 171.046 34.2613 169.43 34.8793 167.928C35.4972 166.425 36.4259 165.07 37.6043 163.952C38.7826 162.834 40.1842 161.977 41.7169 161.439C43.1693 160.926 44.7099 160.71 46.2474 160.803C47.785 160.895 49.2883 161.296 50.6683 161.98C52.0484 162.664 53.2772 163.618 54.2821 164.786C55.2871 165.953 56.0476 167.31 56.5188 168.777C58.9586 176.426 58.8408 184.619 58.6769 187.786C58.6565 188.168 58.5117 188.532 58.2645 188.823C58.0174 189.115 57.6815 189.317 57.3085 189.399L43.1146 192.499C42.9918 192.526 42.8665 192.539 42.7409 192.539Z" fill="#A5A4AA"/>
<path d="M56.4859 282.849H61.2329L63.4914 264.538L56.4851 264.538L56.4859 282.849Z" fill="#FFCAD0"/>
<path d="M70.3884 287.256L55.4688 287.257L55.4685 281.492L64.6238 281.492C65.3808 281.492 66.1303 281.641 66.8297 281.931C67.5291 282.22 68.1646 282.645 68.6999 283.18C69.2352 283.715 69.6598 284.351 69.9495 285.05C70.2393 285.75 70.3884 286.499 70.3884 287.256Z" fill="#313335"/>
<path d="M9.0166 276.697L13.1768 278.983L23.9777 264.026L17.8384 260.651L9.0166 276.697Z" fill="#FFCAD0"/>
<path d="M19.0759 287.257L6.00187 280.069L8.77897 275.018L16.8017 279.428C18.1414 280.165 19.1336 281.403 19.5601 282.872C19.9866 284.34 19.8125 285.917 19.0759 287.257Z" fill="#313335"/>
<path d="M56.2642 272.685C55.8412 272.685 55.4328 272.531 55.1151 272.251C54.7975 271.972 54.5923 271.587 54.5379 271.167L48.601 225.418C48.5748 225.216 48.4853 225.027 48.3453 224.879C48.2053 224.73 48.022 224.63 47.8215 224.592C47.621 224.554 47.4136 224.58 47.229 224.667C47.0443 224.754 46.8919 224.897 46.7933 225.076L22.0509 269.965C21.8467 270.332 21.5178 270.613 21.124 270.758C20.7301 270.902 20.2974 270.901 19.9047 270.753L14.5115 268.698C14.2946 268.616 14.0964 268.491 13.9285 268.33C13.7606 268.17 13.6265 267.978 13.5339 267.765C13.4413 267.552 13.3923 267.323 13.3895 267.091C13.3868 266.859 13.4305 266.628 13.518 266.413L30.6577 224.309C30.7011 224.202 30.7305 224.09 30.7452 223.975C33.0667 206.007 38.9734 196.87 40.7283 194.497C40.8565 194.323 40.9408 194.12 40.9743 193.906C41.0077 193.693 40.9892 193.474 40.9203 193.269L40.6791 192.545C40.5827 192.258 40.5629 191.95 40.6218 191.653C40.6806 191.356 40.8159 191.079 41.0144 190.85C47.3381 183.647 58.3601 187.578 58.4707 187.618L58.5259 187.639L58.5605 187.686C70.9194 204.635 66.3499 259.686 65.3084 270.55C65.2695 270.958 65.0875 271.339 64.7946 271.626C64.5016 271.913 64.1166 272.087 63.7077 272.118L56.3996 272.681C56.3541 272.684 56.309 272.685 56.2642 272.685Z" fill="#313335"/>
<path d="M77.9231 159.582C77.8756 159.791 77.8446 160.003 77.8305 160.217L61.1967 169.813L57.1537 167.485L52.8435 173.128L59.6005 177.944C60.1464 178.333 60.8038 178.534 61.4739 178.518C62.144 178.502 62.7908 178.268 63.3171 177.853L80.4693 164.322C81.2434 164.608 82.0864 164.652 82.8861 164.448C83.6858 164.244 84.4044 163.801 84.9463 163.178C85.4882 162.556 85.8277 161.783 85.9197 160.963C86.0116 160.142 85.8516 159.313 85.461 158.586C85.0704 157.859 84.4677 157.268 83.733 156.892C82.9984 156.516 82.1666 156.372 81.3483 156.48C80.53 156.588 79.7639 156.943 79.1521 157.497C78.5403 158.051 78.1116 158.778 77.9231 159.582Z" fill="#FFCAD0"/>
<path d="M60.6407 170.267L55.2647 177.235C55.1118 177.433 54.9179 177.596 54.6963 177.712C54.4746 177.829 54.2305 177.896 53.9805 177.91C53.7305 177.924 53.4804 177.883 53.2474 177.792C53.0144 177.7 52.8039 177.559 52.6302 177.379L46.5442 171.059C45.5344 170.271 44.8783 169.114 44.72 167.843C44.5616 166.572 44.9139 165.289 45.6994 164.277C46.485 163.265 47.6398 162.606 48.9107 162.444C50.1815 162.282 51.4647 162.631 52.4789 163.414L60.112 167.682C60.3305 167.804 60.5201 167.972 60.6679 168.174C60.8156 168.377 60.9181 168.608 60.9683 168.854C61.0184 169.099 61.0151 169.352 60.9586 169.596C60.9021 169.84 60.7937 170.069 60.6407 170.267Z" fill="#A5A4AA"/>
<path d="M39.8041 182.372L31.1438 180.809C30.8974 180.764 30.6634 180.667 30.4579 180.524C30.2524 180.381 30.0801 180.195 29.9529 179.98C29.8256 179.764 29.7463 179.523 29.7203 179.274C29.6944 179.025 29.7224 178.774 29.8025 178.536L32.61 170.224C32.8448 168.964 33.5694 167.849 34.625 167.123C35.6806 166.397 36.981 166.119 38.2412 166.351C39.5013 166.582 40.6182 167.304 41.3471 168.357C42.076 169.411 42.3572 170.711 42.1293 171.972L41.8553 180.713C41.8474 180.963 41.7857 181.209 41.6742 181.433C41.5628 181.657 41.4044 181.855 41.2098 182.012C41.0151 182.17 40.7888 182.283 40.5462 182.346C40.3037 182.408 40.0505 182.417 39.8041 182.372H39.8041Z" fill="#A5A4AA"/>
<path d="M42.4556 146.347C44.9 148.02 48.1095 149.74 50.606 147.958C51.3869 147.363 51.9543 146.532 52.223 145.588C52.4918 144.644 52.4476 143.638 52.097 142.721C50.9016 139.302 47.6172 137.797 44.4765 136.644C40.3935 135.144 35.9478 133.951 31.7328 135.025C27.5178 136.099 23.7927 140.18 24.5536 144.463C25.1655 147.907 28.4142 150.772 27.953 154.24C27.4888 157.729 23.5644 159.566 20.0997 160.19C16.635 160.813 12.758 161.014 10.268 163.502C7.09169 166.677 7.88488 172.352 10.8737 175.703C13.8625 179.055 18.3728 180.575 22.7433 181.607C28.5339 182.976 34.7969 183.695 40.2965 181.424C45.7961 179.153 50.0758 173.039 48.4827 167.306C47.8097 164.885 46.2245 162.838 44.6924 160.846C43.1604 158.853 41.609 156.77 41.0246 154.326C40.5376 152.289 40.898 149.923 42.2489 148.395C42.4946 148.128 42.6492 147.79 42.6906 147.429C42.7319 147.068 42.6579 146.703 42.4791 146.387L42.4556 146.347Z" fill="#313335"/>
<path d="M78.7035 287.487H0.41206C0.302775 287.487 0.197966 287.443 0.120689 287.366C0.0434131 287.289 0 287.184 0 287.075C0 286.965 0.0434131 286.861 0.120689 286.783C0.197966 286.706 0.302775 286.663 0.41206 286.663H78.7035C78.8128 286.663 78.9176 286.706 78.9949 286.783C79.0722 286.861 79.1156 286.965 79.1156 287.075C79.1156 287.184 79.0722 287.289 78.9949 287.366C78.9176 287.443 78.8128 287.487 78.7035 287.487Z" fill="#CCC9CF"/>
</g>
<defs>
<clipPath id="clip0">
<rect width="410" height="287.487" fill="white"/>
</clipPath>
</defs>
</svg>
